<?xml version="1.0" encoding="UTF-8"?>
<svg width="128px" height="81px" viewBox="0 0 128 81" version="1.1" xmlns="http://www.w3.org/2000/svg" xmlns:xlink="http://www.w3.org/1999/xlink">
    <title>img-empty</title>
    <g id="项目管理" stroke="none" stroke-width="1" fill="none" fill-rule="evenodd">
        <g id="1.-项目列表-空状态" transform="translate(-688.000000, -319.000000)">
            <g id="编组" transform="translate(624.000000, 196.000000)">
                <g id="img-empty" transform="translate(64.000000, 123.000000)">
                    <path d="M64,81 C99.346224,81 128,74.7319865 128,67 C128,59.2680135 99.346224,53 64,53 C41.8194567,53 22.2742938,55.4682448 10.7913394,59.2176158 C3.97541478,61.4431258 0,64.1200073 0,67 C0,74.7319865 28.653776,81 64,81 Z" id="Oval" fill="#F5F5F5"></path>
                    <g id="Group-3" transform="translate(18.000000, 1.000000)" fill-rule="nonzero" stroke="#D9D9D9" stroke-width="2">
                        <path d="M92,25.5211209 L71.7086094,2.51479266 C70.7348828,0.947653209 69.3117578,0 67.8135234,0 L24.1864766,0 C22.6882422,0 21.2651172,0.947900509 20.2913906,2.51479266 L0,25.5211209 L0,44 L92,44 L92,25.5211209 Z" id="Shape"></path>
                        <path d="M22.3206016,26 C24.7860938,26 26.7734375,28.645617 26.7734375,31.8569149 L26.7734375,31.8569149 L26.7734375,31.8992766 C26.7734375,35.1105745 28.7834219,37.7023617 31.2489141,37.7023617 L31.2489141,37.7023617 L60.7510859,37.7023617 C63.2165781,37.7023617 65.2265625,35.0867021 65.2265625,31.8754043 L65.2265625,31.8754043 L65.2265625,31.863 C65.2265625,28.6517021 67.2139063,26.0004681 69.6793984,26 L69.6793984,26 L92,26 L92,62.2742553 C92,66.5179149 89.3587734,70 86.1008594,70 L86.1008594,70 L5.89914063,70 C2.64104688,70 0,66.5176809 0,62.2742553 L0,62.2742553 L0,26 Z" id="Combined-Shape" fill="#FAFAFA"></path>
                    </g>
                </g>
            </g>
        </g>
    </g>
</svg>