<?xml version="1.0" encoding="UTF-8"?>
<svg width="48px" height="48px" viewBox="0 0 48 48" version="1.1" xmlns="http://www.w3.org/2000/svg" xmlns:xlink="http://www.w3.org/1999/xlink">
    <title>icon/device/icon-iphone</title>
    <g id="项目管理" stroke="none" stroke-width="1" fill="none" fill-rule="evenodd">
        <g id="1.3-项目列表-新建-H5" transform="translate(-760.000000, -456.000000)" fill-rule="nonzero">
            <g id="矩形" transform="translate(387.000000, 186.000000)">
                <g id="编组-7" transform="translate(61.000000, 178.000000)">
                    <g id="Cards" transform="translate(24.000000, 76.000000)">
                        <g id="Card/Devices备份-2" transform="translate(256.000000, 0.000000)">
                            <g id="iPhone-X" transform="translate(32.000000, 16.000000)">
                                <path d="M29.1512977,8.18800022 L18.3432851,8.18800022 C16.8392833,8.18800022 15.6152819,9.41200164 15.6152819,10.9160034 L15.6152819,37.1120339 C15.6152819,38.6160356 16.8392833,39.8400371 18.3432851,39.8400371 L29.1512977,39.8400371 C30.6552994,39.8400371 31.8793008,38.6160356 31.8793008,37.1120339 L31.8793008,10.9160034 C31.8793008,9.41200164 30.6552994,8.18800022 29.1512977,8.18800022 Z" id="路径" fill="#FFFFFF"></path>
                                <path d="M29.1512977,39.8400371 L18.3432851,39.8400371 C16.8392833,39.8400371 15.6152819,38.6160356 15.6152819,37.1120339 L15.6152819,10.9160034 C15.6152819,9.41200164 16.8392833,8.18800022 18.3432851,8.18800022 L29.1512977,8.18800022 C30.6552994,8.18800022 31.8793008,9.41200164 31.8793008,10.9160034 L31.8793008,37.1120339 C31.8793008,38.6160356 30.6552994,39.8400371 29.1512977,39.8400371 Z M18.3432851,9.08400126 C17.3312839,9.08400126 16.5112829,9.90800222 16.5112829,10.9160034 L16.5112829,37.1120339 C16.5112829,38.1240351 17.3352839,38.944036 18.3432851,38.944036 L29.1512977,38.944036 C30.1632988,38.944036 30.9832998,38.120035 30.9832998,37.1120339 L30.9832998,10.9160034 C30.9832998,9.90400222 30.1592988,9.08400126 29.1512977,9.08400126 L18.3432851,9.08400126 Z" id="形状" fill="#595C7D"></path>
                                <path d="M31.8953009,15.7800091 C31.8193008,15.7800091 31.7553007,15.716009 31.7553007,15.6400089 L31.7553007,13.9480069 C31.7553007,13.8720068 31.8193008,13.8080068 31.8953009,13.8080068 C31.9713009,13.8080068 32.035301,13.8720068 32.035301,13.9480069 L32.035301,15.6400089 C32.039301,15.716009 31.9753009,15.7800091 31.8953009,15.7800091 Z M15.5872819,15.7800091 C15.5112818,15.7800091 15.4472817,15.716009 15.4472817,15.6400089 L15.4472817,13.9480069 C15.4472817,13.8720068 15.5112818,13.8080068 15.5872819,13.8080068 C15.663282,13.8080068 15.727282,13.8720068 15.727282,13.9480069 L15.727282,15.6400089 C15.727282,15.716009 15.663282,15.7800091 15.5872819,15.7800091 Z M15.5872819,19.4160133 C15.5112818,19.4160133 15.4472817,19.3520132 15.4472817,19.2760131 L15.4472817,17.5840112 C15.4472817,17.5080111 15.5112818,17.444011 15.5872819,17.444011 C15.663282,17.444011 15.727282,17.5080111 15.727282,17.5840112 L15.727282,19.2760131 C15.727282,19.3520132 15.663282,19.4160133 15.5872819,19.4160133 Z M26.7832949,10.4200028 L20.7152878,10.4200028 C20.2192873,10.4200028 19.8152868,10.0160023 19.8152868,9.52000177 L19.8152868,8.66800078 L27.6832959,8.66800078 L27.6832959,9.52000177 C27.6832959,10.0160023 27.2792955,10.4200028 26.7832949,10.4200028 Z M25.7552937,38.6040356 L21.739289,38.6040356 L21.739289,38.6040356 C21.6112017,38.6039322 21.5073922,38.5001227 21.5072888,38.3720353 L21.5072888,38.3720435 C21.5073877,38.2439561 21.6111936,38.1401429 21.7392809,38.1400351 L25.7512856,38.1400351 L25.7512856,38.1400351 C25.8793729,38.1401385 25.9831824,38.243948 25.9832858,38.3720354 C25.9872859,38.4960355 25.8832857,38.6040356 25.7552856,38.6040356 L25.7552937,38.6040356 Z" id="形状" fill="#595C7D"></path>
                            </g>
                        </g>
                    </g>
                </g>
            </g>
        </g>
    </g>
</svg>