<?xml version="1.0" encoding="UTF-8"?>
<svg width="48px" height="48px" viewBox="0 0 48 48" version="1.1" xmlns="http://www.w3.org/2000/svg" xmlns:xlink="http://www.w3.org/1999/xlink">
    <title>icon/device/icon-desktop</title>
    <g id="项目管理" stroke="none" stroke-width="1" fill="none" fill-rule="evenodd">
        <g id="1.2-项目列表-新建" transform="translate(-824.000000, -456.000000)" fill="#595C7D" fill-rule="nonzero">
            <g id="矩形" transform="translate(387.000000, 186.000000)">
                <g id="编组-7" transform="translate(61.000000, 178.000000)">
                    <g id="Cards" transform="translate(88.000000, 76.000000)">
                        <g id="Card/Devices备份-2" transform="translate(256.000000, 0.000000)">
                            <g id="Desktop" transform="translate(32.000000, 16.000000)">
                                <path d="M37.3334091,10.0004089 C38.0738444,10.0004089 38.7040607,10.2590726 39.222277,10.7781785 C39.7404932,11.2963948 40.0000466,11.9257205 40.0000466,12.6670464 L40.0000466,28.6668462 C40.0000466,29.4072815 39.7404941,30.0374978 39.222277,30.555714 L39.2222769,30.5557141 C38.7270513,31.0646522 38.043413,31.3461494 37.3334091,31.3334838 L26.6668654,31.3334838 L28.0001826,36.66674 L32.0001247,36.66674 C32.2596772,36.66674 32.472119,36.7502944 32.6392286,36.9165149 L32.6392286,36.9165149 C32.8070491,37.0859955 32.8974308,37.317256 32.8890036,37.5556188 L32.8890036,37.5556187 C32.897431,37.7939806 32.8070494,38.0252412 32.6392286,38.1947226 L32.6392286,38.1947226 C32.4695984,38.3622181 32.2383563,38.4522707 32.0001248,38.4436085 L16.0003249,38.4436085 L16.0003248,38.4436085 C15.7620939,38.4522707 15.5308524,38.3622178 15.361221,38.1947226 L15.361221,38.1947226 C15.1931711,38.0250277 15.1027707,37.7933972 15.111446,37.5547313 C15.111446,37.2969566 15.1950005,37.0836245 15.361221,36.9165149 L15.361221,36.9165149 C15.5307015,36.7486944 15.7619621,36.6583127 16.0003248,36.6667399 L20.000267,36.6667399 L21.3335842,31.3334837 L10.6670405,31.3334837 L10.6670407,31.3334837 C9.95703672,31.3461498 9.27339842,31.0646525 8.77817284,30.5557141 L8.77817281,30.555714 C8.26923472,30.0604885 7.98773752,29.3768502 8.00040316,28.6668462 L8.00040316,12.6670464 C8.00040316,11.9257205 8.25995565,11.2963948 8.77817281,10.7781785 L8.77817268,10.7781787 C9.27339825,10.2692406 9.95703655,9.98774337 10.6670405,10.000409 L37.3334091,10.0004089 Z M21.8340473,36.6667524 L26.1673336,36.6667524 L25.2784545,33.1112483 L22.7229296,33.1112483 L21.8340473,36.6667524 Z M38.2223164,28.6668368 L38.2223164,12.667037 L38.2223164,12.667037 C38.2307438,12.4286752 38.1403623,12.1974146 37.9725414,12.0279332 L37.9725415,12.0279332 C37.803061,11.8601127 37.5718004,11.769731 37.3334376,11.7781582 L10.6670941,11.7781582 L10.6670941,11.7781582 C10.4287322,11.7697309 10.1974716,11.8601124 10.0279902,12.0279332 L10.0279902,12.0279332 C9.86016971,12.1974137 9.76978804,12.4286743 9.77821524,12.667037 L9.77821524,28.6668369 C9.77821524,28.9263894 9.86176971,29.1388312 10.0279902,29.3059408 L10.0279902,29.3059407 C10.19762,29.4734362 10.4288625,29.5634888 10.667094,29.5548269 L37.3334376,29.5548269 L37.3334375,29.5548269 C37.5716684,29.5634891 37.8029099,29.4734362 37.9725414,29.305941 L37.9725414,29.305941 C38.1405913,29.1362461 38.2309917,28.9046155 38.2223164,28.6659496 L38.2223164,28.6668368 Z" id="形状"></path>
                            </g>
                        </g>
                    </g>
                </g>
            </g>
        </g>
    </g>
</svg>