<?xml version="1.0" encoding="UTF-8"?>
<svg width="48px" height="48px" viewBox="0 0 48 48" version="1.1" xmlns="http://www.w3.org/2000/svg" xmlns:xlink="http://www.w3.org/1999/xlink">
    <title>icon/device/icon-android</title>
    <g id="项目管理" stroke="none" stroke-width="1" fill="none" fill-rule="evenodd">
        <g id="1.3-项目列表-新建-H5" transform="translate(-888.000000, -456.000000)" fill="#595C7D" fill-rule="nonzero">
            <g id="矩形" transform="translate(387.000000, 186.000000)">
                <g id="编组-7" transform="translate(61.000000, 178.000000)">
                    <g id="Cards" transform="translate(24.000000, 76.000000)">
                        <g id="Card/Devices备份-3" transform="translate(384.000000, 0.000000)">
                            <g id="手机" transform="translate(32.000000, 16.000000)">
                                <path d="M31.4288284,8.6352026 L17.7008125,8.6352026 C16.6448112,8.6352026 15.7824102,9.4976036 15.7824102,10.5536048 L15.7824102,37.7984365 C15.7824102,38.8544378 16.6448112,39.7168388 17.7008125,39.7168388 L31.4288284,39.7168388 C32.4848297,39.7168388 33.3472307,38.8544378 33.3472307,37.7984365 L33.3472307,10.5536048 C33.3472307,9.4976036 32.4848297,8.6352026 31.4288284,8.6352026 M22.470418,9.46240356 L26.6592229,9.46240356 C26.8704231,9.46240356 27.0464233,9.63840377 27.0464233,9.84960401 C27.0464233,10.0608043 26.8704231,10.2368045 26.6592229,10.2368045 L22.470418,10.2368045 C22.2592178,10.2368045 22.0832176,10.0608043 22.0832176,9.84960401 C22.0832176,9.62080375 22.2592178,9.46240356 22.470418,9.46240356 M24.5648204,38.4496373 C23.9840198,38.4496373 23.5264192,37.9920368 23.5264192,37.4112361 C23.5264192,36.8304354 24.0016198,36.3728349 24.5648204,36.3728349 C25.1456211,36.3728349 25.6032216,36.8304354 25.6032216,37.4112361 C25.6032216,37.9920368 25.1280211,38.4496373 24.5648204,38.4496373 M32.0096291,35.4752338 L17.1200118,35.4752338 L17.1200118,11.0288054 L32.0096291,11.0288054 L32.0096291,35.4752338 Z" id="形状"></path>
                            </g>
                        </g>
                    </g>
                </g>
            </g>
        </g>
    </g>
</svg>