<?xml version="1.0" encoding="UTF-8"?>
<svg width="48px" height="48px" viewBox="0 0 48 48" version="1.1" xmlns="http://www.w3.org/2000/svg" xmlns:xlink="http://www.w3.org/1999/xlink">
    <title>icon/device/icon-latop2</title>
    <g id="项目管理" stroke="none" stroke-width="1" fill="none" fill-rule="evenodd">
        <g id="1.2-项目列表-新建" transform="translate(-696.000000, -456.000000)" fill-rule="nonzero">
            <g id="矩形" transform="translate(387.000000, 186.000000)">
                <g id="编组-7" transform="translate(61.000000, 178.000000)">
                    <g id="Cards" transform="translate(88.000000, 76.000000)">
                        <g id="Card/Devices备份" transform="translate(128.000000, 0.000000)">
                            <g id="笔记本电脑" transform="translate(32.000000, 16.000000)">
                                <path d="M8.7033223,11.1406496 L39.2967289,11.1406496 C39.7655948,11.1406496 40.0000256,11.3692209 40.0000256,11.8263639 L40.0000256,34.4549353 C40.0000256,34.9120796 39.7655935,35.1406496 39.2967289,35.1406496 L8.7033223,35.1406496 C8.23445637,35.1406496 8.0000256,34.9120783 8.0000256,34.4549353 L8.0000256,11.8263639 C8.0000256,11.3692196 8.23445769,11.1406496 8.7033223,11.1406496 Z" id="路径" fill="#D0D1DA"></path>
                                <path d="M38.953168,11.7968864 L38.953168,34.4844128 L9.0468832,34.4844128 L9.0468832,11.7968864 L38.953168,11.7968864 M38.953168,10.4218848 L9.0468832,10.4218848 L9.04688314,10.4218848 C8.28749124,10.4218848 7.67188154,11.0374945 7.67188154,11.7968864 C7.67188154,11.7968864 7.67188154,11.7968864 7.67188154,11.7968864 L7.67188154,34.4844128 L7.67188154,34.484413 C7.67188154,35.2438049 8.28749124,35.8594146 9.04688314,35.8594146 L38.9531679,35.8594146 L38.9531679,35.8594146 C39.7125598,35.8594146 40.3281695,35.2438049 40.3281695,34.484413 L40.3281695,11.7968866 L40.3281695,11.7968866 C40.3281695,11.0374947 39.7125598,10.4218848 38.9531679,10.4218848 L38.953168,10.4218848 Z" id="形状" fill="#595C7D"></path>
                                <polygon id="路径" fill="#FFFFFF" points="9.3906336 12.1406368 38.6094176 12.1406368 38.6094176 32.7656608 9.3906336 32.7656608"></polygon>
                                <path d="M23.8281504,11.0664168 L23.8281504,11.0664168 C23.8281504,11.1613409 23.9051015,11.238292 24.0000256,11.238292 C24.0949497,11.238292 24.1719008,11.1613409 24.1719008,11.0664168 L24.1719008,11.0664168 C24.1719008,10.9714927 24.0949497,10.8945416 24.0000256,10.8945416 C23.9051015,10.8945416 23.8281504,10.9714927 23.8281504,11.0664168 L23.8281504,11.0664168 Z" id="路径" fill="#FFCD46"></path>
                                <path d="M6.29688,33.796912 L41.7031712,33.796912 C42.1615065,33.796912 42.390672,34.0260788 42.390672,34.4844128 L42.390672,35.8594144 C42.390672,36.3177497 42.1615052,36.5469152 41.7031712,36.5469152 L6.29688,36.5469152 C5.8385447,36.5469152 5.6093792,36.3177484 5.6093792,35.8594144 L5.6093792,34.4844128 C5.6093792,34.0260775 5.83854599,33.796912 6.29688,33.796912 Z" id="路径" fill="#D0D1DA"></path>
                                <path d="M41.7031712,34.4844128 L41.7031712,35.8594144 L6.29688,35.8594144 L6.29688,34.4844128 L41.7031712,34.4844128 M41.7031712,33.1094112 L6.29688,33.1094112 L6.29687994,33.1094112 C5.53748804,33.1094112 4.92187834,33.7250209 4.92187834,34.4844128 C4.92187834,34.4844128 4.92187834,34.4844128 4.92187834,34.4844128 L4.92187834,35.8594144 L4.92187834,35.8594146 C4.92187834,36.6188065 5.53748804,37.2344162 6.29687994,37.2344162 L41.7031711,37.2344162 L41.7031711,37.2344162 C42.462563,37.2344162 43.0781727,36.6188065 43.0781727,35.8594146 L43.0781727,34.484413 L43.0781727,34.484413 C43.0781727,33.7250211 42.462563,33.1094112 41.7031711,33.1094112 L41.7031712,33.1094112 Z" id="形状" fill="#595C7D"></path>
                                <polygon id="路径" fill="#FFCD46" points="20.906272 34.1406624 27.0937792 34.1406624 27.0937792 35.1719136 20.906272 35.1719136"></polygon>
                                <path d="M26.7500224,34.4844128 L26.7500224,34.8281632 L21.2500224,34.8281632 L21.2500224,34.4844128 L26.7500224,34.4844128 M27.0937792,33.796912 L20.906272,33.796912 L20.906272,33.796912 C20.7164238,33.796912 20.5625216,33.9508142 20.5625216,34.1406624 C20.5625216,34.1406624 20.5625216,34.1406624 20.5625216,34.1406624 L20.5625216,35.1719136 L20.5625216,35.1719137 C20.5625216,35.3617618 20.7164238,35.5156641 20.906272,35.5156641 L27.0937792,35.5156641 L27.0937792,35.5156641 C27.2836274,35.5156641 27.4375296,35.3617618 27.4375296,35.1719137 L27.4375296,34.1406625 L27.4375296,34.1406625 C27.4375296,33.9508143 27.2836274,33.796912 27.0937792,33.796912 L27.0937792,33.796912 Z" id="形状" fill="#595C7D"></path>
                            </g>
                        </g>
                    </g>
                </g>
            </g>
        </g>
    </g>
</svg>