<?xml version="1.0" encoding="UTF-8"?>
<svg width="48px" height="48px" viewBox="0 0 48 48" version="1.1" xmlns="http://www.w3.org/2000/svg" xmlns:xlink="http://www.w3.org/1999/xlink">
    <title>icon/device/icon-web</title>
    <g id="项目管理" stroke="none" stroke-width="1" fill="none" fill-rule="evenodd">
        <g id="1.3-项目列表-新建-自定义" transform="translate(-696.000000, -448.000000)" fill="#595C7D" fill-rule="nonzero">
            <g id="矩形" transform="translate(387.000000, 186.000000)">
                <g id="编组-7" transform="translate(61.000000, 178.000000)">
                    <g id="Card/Devices备份-2" transform="translate(165.000000, 76.000000)">
                        <g id="编组-11" transform="translate(75.000000, 0.000000)">
                            <g id="网页" transform="translate(8.000000, 8.000000)">
                                <path d="M35.3640841,8.82695127 L12.5989063,8.82695127 C10.5128407,8.82695127 8.80469796,10.5350796 8.80469796,12.6211596 L8.80469796,35.3863374 C8.80469796,37.472403 10.5128263,39.1805458 12.5989063,39.1805458 L35.3640841,39.1805458 C37.4501497,39.1805458 39.1582925,37.4724175 39.1582925,35.3863374 L39.1582925,12.6211596 C39.1582925,10.535094 37.4501642,8.82695127 35.3640841,8.82695127 L35.3640841,8.82695127 Z M37.2611811,35.3863013 C37.2611811,36.4311867 36.4089696,37.2833982 35.3640841,37.2833982 L12.5989063,37.2833982 C11.5540209,37.2833982 10.7018094,36.4311867 10.7018094,35.3863013 L10.7018094,18.312436 L37.2611811,18.312436 L37.2611811,35.3863013 L37.2611811,35.3863013 Z M37.2612028,16.4153318 L10.7018311,16.4153318 L10.7018311,12.6211234 C10.7018311,11.576238 11.5540426,10.7240265 12.598928,10.7240265 L35.3641058,10.7240265 C36.4089913,10.7240265 37.2612028,11.576238 37.2612028,12.6211234 L37.2612028,16.4153318 L37.2612028,16.4153318 Z" id="形状"></path>
                                <path d="M12.5989063,13.5696936 C12.5989063,14.0921363 13.0250121,14.5182421 13.5474548,14.5182421 C14.0698975,14.5182421 14.4960033,14.0921363 14.4960033,13.5696936 C14.4960033,13.0472509 14.0698975,12.6211452 13.5474548,12.6211452 C13.0213068,12.6211452 12.5989063,13.0472509 12.5989063,13.5696936 Z M16.3931147,13.5696936 C16.3931147,14.0921363 16.8192204,14.5182421 17.3416632,14.5182421 C17.8641059,14.5182421 18.2902116,14.0921363 18.2902116,13.5696936 C18.2902116,13.0472509 17.8641059,12.6211452 17.3416632,12.6211452 C16.8155152,12.6211452 16.3931147,13.0472509 16.3931147,13.5696936 Z M20.187323,13.5696936 C20.187323,14.0921363 20.6134288,14.5182421 21.1358715,14.5182421 C21.6583142,14.5182421 22.08442,14.0921363 22.08442,13.5696936 C22.08442,13.0472509 21.6583142,12.6211452 21.1358715,12.6211452 C20.6097235,12.6211452 20.187323,13.0472509 20.187323,13.5696936 Z" id="形状"></path>
                            </g>
                        </g>
                    </g>
                </g>
            </g>
        </g>
    </g>
</svg>