<?xml version="1.0" encoding="UTF-8"?>
<svg width="48px" height="48px" viewBox="0 0 48 48" version="1.1" xmlns="http://www.w3.org/2000/svg" xmlns:xlink="http://www.w3.org/1999/xlink">
    <title>icon/device/icon-laptop</title>
    <g id="项目管理" stroke="none" stroke-width="1" fill="none" fill-rule="evenodd">
        <g id="1.2-项目列表-新建" transform="translate(-568.000000, -456.000000)" fill-rule="nonzero">
            <g id="矩形" transform="translate(387.000000, 186.000000)">
                <g id="编组-7" transform="translate(61.000000, 178.000000)">
                    <g id="Cards" transform="translate(88.000000, 76.000000)">
                        <g id="笔记本电脑" transform="translate(32.000000, 16.000000)">
                            <path d="M11.7033223,13.1406496 L36.2967289,13.1406496 C36.7655948,13.1406496 37.0000256,13.3692209 37.0000256,13.8263639 L37.0000256,32.4549353 C37.0000256,32.9120796 36.7655935,33.1406496 36.2967289,33.1406496 L11.7033223,33.1406496 C11.2344564,33.1406496 11.0000256,32.9120783 11.0000256,32.4549353 L11.0000256,13.8263639 C11.0000256,13.3692196 11.2344577,13.1406496 11.7033223,13.1406496 Z" id="路径" fill="#D0D1DA"></path>
                            <path d="M35.953168,32.4844128 L12.0468832,32.4844128 L12.0468832,13.7968864 L35.953168,13.7968864 L35.953168,32.4844128 Z M12.0468832,12.4218848 C11.2874912,12.4218848 10.6718815,13.0374945 10.6718815,13.7968864 L10.6718815,32.4844128 C10.6718815,33.2438049 11.2874912,33.8594146 12.0468831,33.8594146 L35.9531679,33.8594146 C36.7125598,33.8594146 37.3281695,33.2438049 37.3281695,32.484413 L37.3281695,13.7968866 C37.3281695,13.0374947 36.7125598,12.4218848 35.9531679,12.4218848 L12.0468832,12.4218848 Z" id="形状" fill="#595C7D"></path>
                            <polygon id="路径" fill="#FFFFFF" points="12.3906336 14.1406368 35.6094176 14.1406368 35.6094176 30.7656608 12.3906336 30.7656608"></polygon>
                            <path d="M24.0000256,13.238292 C24.0949497,13.238292 24.1719008,13.1613409 24.1719008,13.0664168 C24.1719008,12.9714927 24.0949497,12.8945416 24.0000256,12.8945416 C23.9051015,12.8945416 23.8281504,12.9714927 23.8281504,13.0664168 C23.8281504,13.1613409 23.9051015,13.238292 24.0000256,13.238292 Z" id="路径" fill="#FFCD46"></path>
                            <path d="M9.29688,31.796912 L38.7031712,31.796912 C39.1615065,31.796912 39.390672,32.0260788 39.390672,32.4844128 L39.390672,33.8594144 C39.390672,34.3177497 39.1615052,34.5469152 38.7031712,34.5469152 L9.29688,34.5469152 C8.8385447,34.5469152 8.6093792,34.3177484 8.6093792,33.8594144 L8.6093792,32.4844128 C8.6093792,32.0260775 8.83854599,31.796912 9.29688,31.796912 Z" id="路径" fill="#D0D1DA"></path>
                            <path d="M38.7031712,33.8594144 L9.29688,33.8594144 L9.29688,32.4844128 L38.7031712,32.4844128 L38.7031712,33.8594144 Z M9.29688,31.1094112 C8.53748804,31.1094112 7.92187834,31.7250209 7.92187834,32.4844128 L7.92187834,33.8594144 C7.92187834,34.6188065 8.53748804,35.2344162 9.29687994,35.2344162 L38.7031711,35.2344162 C39.462563,35.2344162 40.0781727,34.6188065 40.0781727,33.8594146 L40.0781727,32.484413 C40.0781727,31.7250211 39.462563,31.1094112 38.7031711,31.1094112 L9.29688,31.1094112 Z" id="形状" fill="#595C7D"></path>
                            <polygon id="路径" fill="#FFCD46" points="20.906272 32.1406624 27.0937792 32.1406624 27.0937792 33.1719136 20.906272 33.1719136"></polygon>
                            <path d="M26.7500224,32.8281632 L21.2500224,32.8281632 L21.2500224,32.4844128 L26.7500224,32.4844128 L26.7500224,32.8281632 Z M20.906272,31.796912 C20.7164238,31.796912 20.5625216,31.9508142 20.5625216,32.1406624 L20.5625216,33.1719136 C20.5625216,33.3617618 20.7164238,33.5156641 20.906272,33.5156641 L27.0937792,33.5156641 C27.2836274,33.5156641 27.4375296,33.3617618 27.4375296,33.1719137 L27.4375296,32.1406625 C27.4375296,31.9508143 27.2836274,31.796912 27.0937792,31.796912 L20.906272,31.796912 Z" id="形状" fill="#595C7D"></path>
                        </g>
                    </g>
                </g>
            </g>
        </g>
    </g>
</svg>