<?xml version="1.0" standalone="no"?><!DOCTYPE svg PUBLIC "-//W3C//DTD SVG 1.1//EN" "http://www.w3.org/Graphics/SVG/1.1/DTD/svg11.dtd"><svg class="icon" width="200px" height="200.00px" viewBox="0 0 1024 1024" version="1.1" xmlns="http://www.w3.org/2000/svg"><path d="M512 512m-512 0a512 512 0 1 0 1024 0 512 512 0 1 0-1024 0Z" fill="#D3D1D1" /><path d="M736 672c0 17.6-14.4 32-32 32H624c-17.6 0-32-14.4-32-32V568c0-17.6 14.4-32 32-32h80c17.6 0 32 14.4 32 32v104zM920 672c0 17.6-14.4 32-32 32h-80c-17.6 0-32-14.4-32-32V568c0-17.6 14.4-32 32-32h80c17.6 0 32 14.4 32 32v104z" fill="#E23333" /><path d="M704 712H624c-22.4 0-40-17.6-40-40V568c0-22.4 17.6-40 40-40h80c22.4 0 40 17.6 40 40v104c0 22.4-17.6 40-40 40zM624 544c-13.6 0-24 10.4-24 24v104c0 13.6 10.4 24 24 24h80c13.6 0 24-10.4 24-24V568c0-13.6-10.4-24-24-24H624zM888 712h-80c-22.4 0-40-17.6-40-40V568c0-22.4 17.6-40 40-40h80c22.4 0 40 17.6 40 40v104c0 22.4-17.6 40-40 40z m-80-168c-13.6 0-24 10.4-24 24v104c0 13.6 10.4 24 24 24h80c13.6 0 24-10.4 24-24V568c0-13.6-10.4-24-24-24h-80z" fill="#A03513" /><path d="M488 768c0 35.2-28.8 64-64 64H104c-35.2 0-64-28.8-64-64V256c0-35.2 28.8-64 64-64h320c35.2 0 64 28.8 64 64v512z" fill="#3AD0F9" /><path d="M976 832V646.4c0-33.6-24.8-62.4-58.4-62.4h-320c-33.6 0-61.6 28.8-61.6 62.4V832h440z" fill="#F74541" /><path d="M168 728m-72 0a72 72 0 1 0 144 0 72 72 0 1 0-144 0Z" fill="#00B3F9" /><path d="M167.2 505.6m-68.8 0a68.8 68.8 0 1 0 137.6 0 68.8 68.8 0 1 0-137.6 0Z" fill="#3AD0F9" /><path d="M357.6 505.6m-69.6 0a69.6 69.6 0 1 0 139.2 0 69.6 69.6 0 1 0-139.2 0Z" fill="#3AD0F9" /><path d="M167.2 696m-68.8 0a68.8 68.8 0 1 0 137.6 0 68.8 68.8 0 1 0-137.6 0Z" fill="#3AD0F9" /><path d="M357.6 696m-69.6 0a69.6 69.6 0 1 0 139.2 0 69.6 69.6 0 1 0-139.2 0Z" fill="#3AD0F9" /><path d="M976 840H536c-4.8 0-8-3.2-8-8V646.4c0-37.6 32-70.4 69.6-70.4h320c36.8 0 66.4 30.4 66.4 70.4V832c0 4.8-3.2 8-8 8z m-432-16h424V646.4c0-30.4-22.4-54.4-50.4-54.4h-320C568 592 544 616.8 544 646.4V824z" fill="#A03513" /><path d="M424 840H104c-40 0-72-32-72-72V256c0-40 32-72 72-72h320c40 0 72 32 72 72v512c0 40-32 72-72 72zM104 200c-31.2 0-56 24.8-56 56v512c0 31.2 24.8 56 56 56h320c31.2 0 56-24.8 56-56V256c0-31.2-24.8-56-56-56H104z" fill="#0C508E" /><path d="M168 776c-44 0-80-36-80-80s36-80 80-80 80 36 80 80-36 80-80 80z m0-143.2c-35.2 0-63.2 28.8-63.2 63.2 0 35.2 28.8 63.2 63.2 63.2 35.2 0 63.2-28.8 63.2-63.2 0-35.2-28-63.2-63.2-63.2z" fill="#0C508E" /><path d="M191.2 353.6c-2.4 0-4.8-0.8-6.4-3.2-2.4-3.2-2.4-8.8 1.6-11.2 8-5.6 12-14.4 12-24 0-16.8-13.6-30.4-30.4-30.4-4.8 0-8-3.2-8-8s3.2-8 8-8c25.6 0 46.4 20.8 46.4 46.4 0 14.4-6.4 28-18.4 36.8-1.6 0.8-3.2 1.6-4.8 1.6zM128.8 323.2c-4.8 0-8-3.2-8-8 0-14.4 6.4-28 18.4-36.8 3.2-2.4 8.8-2.4 11.2 1.6 2.4 3.2 2.4 8.8-1.6 11.2-7.2 5.6-12 14.4-12 24 0 4-4 8-8 8zM198.4 728c-1.6 0-4-0.8-4.8-1.6-3.2-3.2-3.2-8-0.8-11.2 5.6-5.6 8-13.6 8-20.8 0-17.6-14.4-31.2-32-31.2-7.2 0-14.4 2.4-20 7.2-3.2 2.4-8 2.4-11.2-0.8-2.4-3.2-2.4-8 0.8-11.2 8-7.2 19.2-10.4 29.6-10.4 26.4 0 47.2 20.8 47.2 47.2 0 11.2-4 22.4-12 31.2-0.8 0.8-3.2 1.6-4.8 1.6zM688 624h-64c-4.8 0-8-3.2-8-8s3.2-8 8-8h64c4.8 0 8 3.2 8 8s-3.2 8-8 8zM944 800c-4.8 0-8-3.2-8-8V673.6c0-23.2-24.8-49.6-47.2-49.6H752c-4.8 0-8-3.2-8-8s3.2-8 8-8h136.8c31.2 0 63.2 32.8 63.2 65.6V792c0 4.8-3.2 8-8 8z" fill="#FFFFFF" /><path d="M1000 840H16c-4.8 0-8-3.2-8-8s3.2-8 8-8h984c4.8 0 8 3.2 8 8s-3.2 8-8 8z" fill="#0C508E" /><path d="M834.4 231.2c0-3.2-3.2-6.4-8-7.2l-15.2-2.4c-4-0.8-8.8-4.8-8.8-8.8l-2.4-15.2c-0.8-4-4-8-7.2-8s-6.4 3.2-7.2 8l-1.6 15.2c-0.8 4-4.8 8.8-8.8 8.8L760 224c-4 0.8-8 4-8 7.2s3.2 6.4 8 7.2l15.2 2.4c4 0.8 8.8 4.8 8.8 8.8l2.4 15.2c0.8 4 4 8 7.2 8s6.4-3.2 7.2-8l2.4-16.8c0.8-4 4.8-8 8.8-8.8l14.4-0.8c4-1.6 8-4 8-7.2zM582.4 95.2c0-3.2-3.2-6.4-8-7.2l-15.2-2.4c-4-0.8-8.8-4.8-8.8-8.8l-2.4-15.2c-0.8-4-4-8-7.2-8s-6.4 3.2-7.2 8l-2.4 15.2c-0.8 4-4.8 8.8-8.8 8.8l-14.4 2.4c-4 0.8-8 4-8 7.2s3.2 6.4 8 7.2l15.2 2.4c4 0.8 8.8 4.8 8.8 8.8l2.4 15.2c0.8 4 4 8 7.2 8s6.4-3.2 7.2-8l2.4-16.8c0.8-4 4.8-8 8.8-8.8l14.4-0.8c4-1.6 8-4.8 8-7.2zM656 400c-17.6 0-32-14.4-32-32s14.4-32 32-32 32 14.4 32 32-14.4 32-32 32z m0-48c-8.8 0-16 7.2-16 16s7.2 16 16 16 16-7.2 16-16-7.2-16-16-16zM872 424c-17.6 0-32-14.4-32-32s14.4-32 32-32 32 14.4 32 32-14.4 32-32 32z m0-48c-8.8 0-16 7.2-16 16s7.2 16 16 16 16-7.2 16-16-7.2-16-16-16z" fill="#FFFFFF" /><path d="M360 728m-72 0a72 72 0 1 0 144 0 72 72 0 1 0-144 0Z" fill="#00B3F9" /><path d="M359.2 696m-68.8 0a68.8 68.8 0 1 0 137.6 0 68.8 68.8 0 1 0-137.6 0Z" fill="#3AD0F9" /><path d="M360 776c-44 0-80-36-80-80s36-80 80-80 80 36 80 80-36 80-80 80z m0-143.2c-35.2 0-63.2 28.8-63.2 63.2 0 35.2 28.8 63.2 63.2 63.2 35.2 0 63.2-28.8 63.2-63.2 0-35.2-28-63.2-63.2-63.2z" fill="#0C508E" /><path d="M390.4 728c-1.6 0-4-0.8-4.8-1.6-3.2-3.2-3.2-8-0.8-11.2 5.6-5.6 8-13.6 8-20.8 0-17.6-14.4-31.2-32-31.2-7.2 0-14.4 2.4-20 7.2-3.2 2.4-8 2.4-11.2-0.8-2.4-3.2-2.4-8 0.8-11.2 8-7.2 19.2-10.4 29.6-10.4 26.4 0 47.2 20.8 47.2 47.2 0 11.2-4 22.4-12 31.2-0.8 0.8-3.2 1.6-4.8 1.6z" fill="#FFFFFF" /><path d="M168 536m-72 0a72 72 0 1 0 144 0 72 72 0 1 0-144 0Z" fill="#00B3F9" /><path d="M167.2 504m-68.8 0a68.8 68.8 0 1 0 137.6 0 68.8 68.8 0 1 0-137.6 0Z" fill="#3AD0F9" /><path d="M168 584c-44 0-80-36-80-80s36-80 80-80 80 36 80 80-36 80-80 80z m0-143.2c-35.2 0-63.2 28.8-63.2 63.2 0 35.2 28.8 63.2 63.2 63.2 35.2 0 63.2-28.8 63.2-63.2 0-35.2-28-63.2-63.2-63.2z" fill="#0C508E" /><path d="M198.4 536c-1.6 0-4-0.8-4.8-1.6-3.2-3.2-3.2-8-0.8-11.2 5.6-5.6 8-13.6 8-20.8 0-17.6-14.4-31.2-32-31.2-7.2 0-14.4 2.4-20 7.2-3.2 2.4-8 2.4-11.2-0.8-2.4-3.2-2.4-8 0.8-11.2 8-7.2 19.2-10.4 29.6-10.4 26.4 0 47.2 20.8 47.2 47.2 0 11.2-4 22.4-12 31.2-0.8 0.8-3.2 1.6-4.8 1.6z" fill="#FFFFFF" /><path d="M360 536m-72 0a72 72 0 1 0 144 0 72 72 0 1 0-144 0Z" fill="#00B3F9" /><path d="M359.2 504m-68.8 0a68.8 68.8 0 1 0 137.6 0 68.8 68.8 0 1 0-137.6 0Z" fill="#3AD0F9" /><path d="M360 584c-44 0-80-36-80-80s36-80 80-80 80 36 80 80-36 80-80 80z m0-143.2c-35.2 0-63.2 28.8-63.2 63.2 0 35.2 28.8 63.2 63.2 63.2 35.2 0 63.2-28.8 63.2-63.2 0-35.2-28-63.2-63.2-63.2z" fill="#0C508E" /><path d="M390.4 536c-1.6 0-4-0.8-4.8-1.6-3.2-3.2-3.2-8-0.8-11.2 5.6-5.6 8-13.6 8-20.8 0-17.6-14.4-31.2-32-31.2-7.2 0-14.4 2.4-20 7.2-3.2 2.4-8 2.4-11.2-0.8-2.4-3.2-2.4-8 0.8-11.2 8-7.2 19.2-10.4 29.6-10.4 26.4 0 47.2 20.8 47.2 47.2 0 11.2-4 22.4-12 31.2-0.8 0.8-3.2 1.6-4.8 1.6z" fill="#FFFFFF" /><path d="M168 344m-72 0a72 72 0 1 0 144 0 72 72 0 1 0-144 0Z" fill="#00B3F9" /><path d="M167.2 312m-68.8 0a68.8 68.8 0 1 0 137.6 0 68.8 68.8 0 1 0-137.6 0Z" fill="#3AD0F9" /><path d="M168 392c-44 0-80-36-80-80s36-80 80-80 80 36 80 80-36 80-80 80z m0-143.2c-35.2 0-63.2 28.8-63.2 63.2 0 35.2 28.8 63.2 63.2 63.2 35.2 0 63.2-28.8 63.2-63.2 0-35.2-28-63.2-63.2-63.2z" fill="#0C508E" /><path d="M198.4 344c-1.6 0-4-0.8-4.8-1.6-3.2-3.2-3.2-8-0.8-11.2 5.6-5.6 8-13.6 8-20.8 0-17.6-14.4-31.2-32-31.2-7.2 0-14.4 2.4-20 7.2-3.2 2.4-8 2.4-11.2-0.8-2.4-3.2-2.4-8 0.8-11.2 8-7.2 19.2-10.4 29.6-10.4 26.4 0 47.2 20.8 47.2 47.2 0 11.2-4 22.4-12 31.2-0.8 0.8-3.2 1.6-4.8 1.6z" fill="#FFFFFF" /><path d="M360 344m-72 0a72 72 0 1 0 144 0 72 72 0 1 0-144 0Z" fill="#00B3F9" /><path d="M359.2 312m-68.8 0a68.8 68.8 0 1 0 137.6 0 68.8 68.8 0 1 0-137.6 0Z" fill="#3AD0F9" /><path d="M360 392c-44 0-80-36-80-80s36-80 80-80 80 36 80 80-36 80-80 80z m0-143.2c-35.2 0-63.2 28.8-63.2 63.2 0 35.2 28.8 63.2 63.2 63.2 35.2 0 63.2-28.8 63.2-63.2 0-35.2-28-63.2-63.2-63.2z" fill="#0C508E" /><path d="M390.4 344c-1.6 0-4-0.8-4.8-1.6-3.2-3.2-3.2-8-0.8-11.2 5.6-5.6 8-13.6 8-20.8 0-17.6-14.4-31.2-32-31.2-7.2 0-14.4 2.4-20 7.2-3.2 2.4-8 2.4-11.2-0.8-2.4-3.2-2.4-8 0.8-11.2 8-7.2 19.2-10.4 29.6-10.4 26.4 0 47.2 20.8 47.2 47.2 0 11.2-4 22.4-12 31.2-0.8 0.8-3.2 1.6-4.8 1.6z" fill="#FFFFFF" /></svg>