<?xml version="1.0" encoding="UTF-8"?>
<svg width="48px" height="48px" viewBox="0 0 48 48" version="1.1" xmlns="http://www.w3.org/2000/svg" xmlns:xlink="http://www.w3.org/1999/xlink">
    <title>icon/Components/icon-hoc-button</title>
    <defs>
        <path d="M7.6916556,-3.10752092e-16 L32.3083444,3.10752092e-16 C34.9829006,-1.80555915e-16 35.9527593,0.278476833 36.9305371,0.801398111 C37.9083149,1.32431939 38.6756806,2.09168511 39.1986019,3.06946289 C39.7215232,4.04724067 40,5.01709938 40,7.6916556 L40,20.3083444 C40,22.9829006 39.7215232,23.9527593 39.1986019,24.9305371 C38.6756806,25.9083149 37.9083149,26.6756806 36.9305371,27.1986019 C35.9527593,27.7215232 34.9829006,28 32.3083444,28 L7.6916556,28 C5.01709938,28 4.04724067,27.7215232 3.06946289,27.1986019 C2.09168511,26.6756806 1.32431939,25.9083149 0.801398111,24.9305371 C0.278476833,23.9527593 1.2037061e-16,22.9829006 -2.07168062e-16,20.3083444 L2.07168062e-16,7.6916556 C-1.2037061e-16,5.01709938 0.278476833,4.04724067 0.801398111,3.06946289 C1.32431939,2.09168511 2.09168511,1.32431939 3.06946289,0.801398111 C4.04724067,0.278476833 5.01709938,1.80555915e-16 7.6916556,-3.10752092e-16 Z" id="path-1"></path>
    </defs>
    <g id="项目管理" stroke="none" stroke-width="1" fill="none" fill-rule="evenodd">
        <g id="2.-编辑" transform="translate(-73.000000, -858.000000)">
            <g id="Components/ComponentsSelectPanel" transform="translate(52.000000, 362.000000)">
                <g id="编组备份" transform="translate(4.000000, 443.000000)">
                    <g id="Card/Component" transform="translate(4.000000, 40.000000)">
                        <g id="编组" transform="translate(13.000000, 13.000000)">
                            <path d="M10.2555408,-4.14336123e-16 L37.7444592,4.14336123e-16 C41.3105342,-2.4074122e-16 42.6036791,0.371302445 43.9073828,1.06853082 C45.2110865,1.76575919 46.2342408,2.78891348 46.9314692,4.09261719 C47.6286976,5.39632089 48,6.68946584 48,10.2555408 L48,37.7444592 C48,41.3105342 47.6286976,42.6036791 46.9314692,43.9073828 C46.2342408,45.2110865 45.2110865,46.2342408 43.9073828,46.9314692 C42.6036791,47.6286976 41.3105342,48 37.7444592,48 L10.2555408,48 C6.68946584,48 5.39632089,47.6286976 4.09261719,46.9314692 C2.78891348,46.2342408 1.76575919,45.2110865 1.06853082,43.9073828 C0.371302445,42.6036791 1.60494146e-16,41.3105342 -2.76224082e-16,37.7444592 L2.76224082e-16,10.2555408 C-1.60494146e-16,6.68946584 0.371302445,5.39632089 1.06853082,4.09261719 C1.76575919,2.78891348 2.78891348,1.76575919 4.09261719,1.06853082 C5.39632089,0.371302445 6.68946584,2.4074122e-16 10.2555408,-4.14336123e-16 Z" id="矩形"></path>
                            <g id="路径-2" transform="translate(4.000000, 10.000000)">
                                <mask id="mask-2" fill="white">
                                    <use xlink:href="#path-1"></use>
                                </mask>
                                <use id="蒙版" fill="#254EC3" xlink:href="#path-1"></use>
                                <text id="Button" mask="url(#mask-2)" font-family="STYuanti-SC-Bold, Yuanti SC" font-size="10" font-weight="bold" fill="#FFFFFF">
                                    <tspan x="5.3" y="18">Button</tspan>
                                </text>
                            </g>
                        </g>
                    </g>
                </g>
            </g>
        </g>
    </g>
</svg>