<?xml version="1.0" encoding="UTF-8"?>
<svg width="48px" height="48px" viewBox="0 0 48 48" version="1.1" xmlns="http://www.w3.org/2000/svg" xmlns:xlink="http://www.w3.org/1999/xlink">
    <title>icon/Components/icon-container2</title>
    <defs>
        <path d="M14.6916556,7 L33.3083444,7 C35.9829006,7 36.9527593,7.27847683 37.9305371,7.80139811 C38.9083149,8.32431939 39.6756806,9.09168511 40.1986019,10.0694629 C40.7215232,11.0472407 41,12.0170994 41,14.6916556 L41,33.3083444 C41,35.9829006 40.7215232,36.9527593 40.1986019,37.9305371 C39.6756806,38.9083149 38.9083149,39.6756806 37.9305371,40.1986019 C36.9527593,40.7215232 35.9829006,41 33.3083444,41 L14.6916556,41 C12.0170994,41 11.0472407,40.7215232 10.0694629,40.1986019 C9.09168511,39.6756806 8.32431939,38.9083149 7.80139811,37.9305371 C7.27847683,36.9527593 7,35.9829006 7,33.3083444 L7,14.6916556 C7,12.0170994 7.27847683,11.0472407 7.80139811,10.0694629 C8.32431939,9.09168511 9.09168511,8.32431939 10.0694629,7.80139811 C11.0472407,7.27847683 12.0170994,7 14.6916556,7 Z" id="path-1"></path>
    </defs>
    <g id="项目管理" stroke="none" stroke-width="1" fill="none" fill-rule="evenodd">
        <g id="2.-编辑" transform="translate(-148.000000, -459.000000)">
            <g id="Components/ComponentsSelectPanel" transform="translate(52.000000, 362.000000)">
                <g id="编组备份-2" transform="translate(4.000000, 44.000000)">
                    <g id="Card/Component备份" transform="translate(79.000000, 40.000000)">
                        <g id="矩形" transform="translate(13.000000, 13.000000)">
                            <path d="M10.2555408,-4.14336123e-16 L37.7444592,4.14336123e-16 C41.3105342,-2.4074122e-16 42.6036791,0.371302445 43.9073828,1.06853082 C45.2110865,1.76575919 46.2342408,2.78891348 46.9314692,4.09261719 C47.6286976,5.39632089 48,6.68946584 48,10.2555408 L48,37.7444592 C48,41.3105342 47.6286976,42.6036791 46.9314692,43.9073828 C46.2342408,45.2110865 45.2110865,46.2342408 43.9073828,46.9314692 C42.6036791,47.6286976 41.3105342,48 37.7444592,48 L10.2555408,48 C6.68946584,48 5.39632089,47.6286976 4.09261719,46.9314692 C2.78891348,46.2342408 1.76575919,45.2110865 1.06853082,43.9073828 C0.371302445,42.6036791 1.60494146e-16,41.3105342 -2.76224082e-16,37.7444592 L2.76224082e-16,10.2555408 C-1.60494146e-16,6.68946584 0.371302445,5.39632089 1.06853082,4.09261719 C1.76575919,2.78891348 2.78891348,1.76575919 4.09261719,1.06853082 C5.39632089,0.371302445 6.68946584,2.4074122e-16 10.2555408,-4.14336123e-16 Z"></path>
                            <mask id="mask-2" fill="white">
                                <use xlink:href="#path-1"></use>
                            </mask>
                            <path stroke="#D0D1DA" d="M14.6916556,7.5 L33.3083444,7.5 C35.841302,7.5 36.7668409,7.74606007 37.6947377,8.24230471 C38.5840924,8.71793682 39.2820632,9.4159076 39.7576953,10.3052623 C40.2539399,11.2331591 40.5,12.158698 40.5,14.6916556 L40.5,14.6916556 L40.5,33.3083444 C40.5,35.841302 40.2539399,36.7668409 39.7576953,37.6947377 C39.2820632,38.5840924 38.5840924,39.2820632 37.6947377,39.7576953 C36.7668409,40.2539399 35.841302,40.5 33.3083444,40.5 L33.3083444,40.5 L14.6916556,40.5 C12.158698,40.5 11.2331591,40.2539399 10.3052623,39.7576953 C9.4159076,39.2820632 8.71793682,38.5840924 8.24230471,37.6947377 C7.74606007,36.7668409 7.5,35.841302 7.5,33.3083444 L7.5,33.3083444 L7.5,14.6916556 C7.5,12.158698 7.74606007,11.2331591 8.24230471,10.3052623 C8.71793682,9.4159076 9.4159076,8.71793682 10.3052623,8.24230471 C11.2331591,7.74606007 12.158698,7.5 14.6916556,7.5 L14.6916556,7.5 Z"></path>
                            <g id="编组-2" mask="url(#mask-2)" fill-rule="nonzero" stroke="#D0D1DA">
                                <g transform="translate(12.000000, 18.000000)">
                                    <rect id="矩形" x="0" y="0" width="12" height="8" rx="1"></rect>
                                    <rect id="矩形备份" x="0" y="12" width="8" height="7" rx="1"></rect>
                                    <rect id="矩形备份-3" transform="translate(20.000000, 4.000000) scale(-1, 1) translate(-20.000000, -4.000000) " x="16" y="0" width="8" height="8" rx="1"></rect>
                                    <rect id="矩形备份-4" transform="translate(18.000000, 15.500000) scale(-1, 1) translate(-18.000000, -15.500000) " x="12" y="12" width="12" height="7" rx="1"></rect>
                                </g>
                            </g>
                            <g id="编组" mask="url(#mask-2)" fill="#254EC3" fill-rule="nonzero">
                                <g transform="translate(12.000000, 11.000000)" id="矩形">
                                    <rect x="0" y="0" width="24" height="3" rx="1.5"></rect>
                                </g>
                            </g>
                        </g>
                    </g>
                </g>
            </g>
        </g>
    </g>
</svg>