<?xml version="1.0" encoding="UTF-8"?>
<svg width="48px" height="48px" viewBox="0 0 48 48" version="1.1" xmlns="http://www.w3.org/2000/svg" xmlns:xlink="http://www.w3.org/1999/xlink">
    <title>icon/Components/icon-hoc-nav</title>
    <g id="组件属性" stroke="none" stroke-width="1" fill="none" fill-rule="evenodd">
        <g id="9.魔方导航" transform="translate(-128.000000, -188.000000)">
            <g id="编组-2" transform="translate(110.000000, 175.000000)">
                <g id="Card/Component" transform="translate(5.000000, 0.000000)">
                    <g id="编组-2" transform="translate(13.000000, 13.000000)">
                        <path d="M10.2555408,-4.14336123e-16 L37.7444592,4.14336123e-16 C41.3105342,-2.4074122e-16 42.6036791,0.371302445 43.9073828,1.06853082 C45.2110865,1.76575919 46.2342408,2.78891348 46.9314692,4.09261719 C47.6286976,5.39632089 48,6.68946584 48,10.2555408 L48,37.7444592 C48,41.3105342 47.6286976,42.6036791 46.9314692,43.9073828 C46.2342408,45.2110865 45.2110865,46.2342408 43.9073828,46.9314692 C42.6036791,47.6286976 41.3105342,48 37.7444592,48 L10.2555408,48 C6.68946584,48 5.39632089,47.6286976 4.09261719,46.9314692 C2.78891348,46.2342408 1.76575919,45.2110865 1.06853082,43.9073828 C0.371302445,42.6036791 1.60494146e-16,41.3105342 -2.76224082e-16,37.7444592 L2.76224082e-16,10.2555408 C-1.60494146e-16,6.68946584 0.371302445,5.39632089 1.06853082,4.09261719 C1.76575919,2.78891348 2.78891348,1.76575919 4.09261719,1.06853082 C5.39632089,0.371302445 6.68946584,2.4074122e-16 10.2555408,-4.14336123e-16 Z" id="矩形"></path>
                        <g id="导航栏图标_综合" transform="translate(9.000000, 9.000000)" fill-rule="nonzero">
                            <rect id="矩形" fill="#000000" opacity="0" x="0" y="0" width="30" height="30"></rect>
                            <path d="M26.25,16.125 L16.125,16.125 L16.125,26.25 C16.125,28.3125 17.8125,30 19.875,30 L26.25,30 C28.3125,30 30,28.3125 30,26.25 L30,19.875 C30,17.8125 28.3125,16.125 26.25,16.125 Z M0,19.875 L0,26.25 C0,28.3125 1.6875,30 3.75,30 L10.125,30 C12.1875,30 13.875,28.3125 13.875,26.25 L13.875,16.125 L3.75,16.125 C1.6875,16.125 0,17.8125 0,19.875 Z M10.125,0 L3.75,0 C1.6875,0 0,1.6875 0,3.75 L0,10.125 C0,12.1875 1.6875,13.875 3.75,13.875 L13.875,13.875 L13.875,3.75 C13.875,1.6875 12.1875,0 10.125,0 Z" id="形状" fill="#D0D1DA"></path>
                            <path d="M26.25,0 L19.875,0 C17.8125,0 16.125,1.6875 16.125,3.75 L16.125,13.875 L26.25,13.875 C28.3125,13.875 30,12.1875 30,10.125 L30,3.75 C30,1.6875 28.3125,0 26.25,0 Z" id="路径" fill="#254EC3"></path>
                        </g>
                    </g>
                </g>
            </g>
        </g>
    </g>
</svg>