<?xml version="1.0" encoding="UTF-8"?>
<svg width="24px" height="24px" viewBox="0 0 24 24" version="1.1" xmlns="http://www.w3.org/2000/svg" xmlns:xlink="http://www.w3.org/1999/xlink">
    <title>icon/bulkOutline/icon-export</title>
    <g id="项目管理" stroke="none" stroke-width="1" fill="none" fill-rule="evenodd" opacity="0.7">
        <g id="2.-编辑" transform="translate(-1392.000000, -12.000000)">
            <g id="icon/bulkOutline/icon-export" transform="translate(1392.000000, 12.000000)">
                <rect id="矩形" x="0" y="0" width="24" height="24"></rect>
                <g id="Iconly/Light/Upload" transform="translate(2.000000, 2.000000)">
                    <g id="Upload" transform="translate(10.000000, 10.000000) rotate(-90.000000) translate(-10.000000, -10.000000) ">
                        <path d="M13.016,5.3895 L13.016,4.4565 C13.016,2.4215 11.366,0.7715 9.331,0.7715 L4.456,0.7715 C2.422,0.7715 0.772,2.4215 0.772,4.4565 L0.772,15.5865 C0.772,17.6215 2.422,19.2715 4.456,19.2715 L9.341,19.2715 C11.37,19.2715 13.016,17.6265 13.016,15.5975 L13.016,14.6545" id="Stroke-1" stroke="#131746" stroke-width="1.5" stroke-linecap="round" stroke-linejoin="round"></path>
                        <rect id="矩形" fill="#D0D1DA" x="4" y="5" width="6" height="10" rx="2"></rect>
                        <line x1="19.8095" y1="10.0214" x2="7.7685" y2="10.0214" id="Stroke-3" stroke="#131746" stroke-width="1.5" stroke-linecap="round" stroke-linejoin="round"></line>
                        <polyline id="Stroke-5" stroke="#131746" stroke-width="1.5" stroke-linecap="round" stroke-linejoin="round" points="16.8812 7.1063 19.8092 10.0213 16.8812 12.9373"></polyline>
                    </g>
                </g>
            </g>
        </g>
    </g>
</svg>