<?xml version="1.0" encoding="UTF-8"?>
<svg width="48px" height="48px" viewBox="0 0 48 48" version="1.1" xmlns="http://www.w3.org/2000/svg" xmlns:xlink="http://www.w3.org/1999/xlink">
    <title>icon/Components/icon-hoc-picture</title>
    <defs>
        <path d="M14.1013686,-5.69712169e-16 L21.8986314,5.69712169e-16 C26.8019845,-3.31019177e-16 28.5800588,0.510540861 30.3726514,1.46922987 C32.165244,2.42791888 33.5720811,3.83475604 34.5307701,5.62734863 C35.4894591,7.41994122 36,9.19801553 36,14.1013686 L36,21.8986314 C36,26.8019845 35.4894591,28.5800588 34.5307701,30.3726514 C33.5720811,32.165244 32.165244,33.5720811 30.3726514,34.5307701 C28.5800588,35.4894591 26.8019845,36 21.8986314,36 L14.1013686,36 C9.19801553,36 7.41994122,35.4894591 5.62734863,34.5307701 C3.83475604,33.5720811 2.42791888,32.165244 1.46922987,30.3726514 C0.510540861,28.5800588 2.20679451e-16,26.8019845 -3.79808113e-16,21.8986314 L3.79808113e-16,14.1013686 C-2.20679451e-16,9.19801553 0.510540861,7.41994122 1.46922987,5.62734863 C2.42791888,3.83475604 3.83475604,2.42791888 5.62734863,1.46922987 C7.41994122,0.510540861 9.19801553,3.31019177e-16 14.1013686,-5.69712169e-16 Z" id="path-1"></path>
    </defs>
    <g id="组件属性" stroke="none" stroke-width="1" fill="none" fill-rule="evenodd">
        <g id="99.-其他补充" transform="translate(-128.000000, -188.000000)">
            <g id="编组-2" transform="translate(113.000000, 175.000000)">
                <g id="Card/Component" transform="translate(2.000000, 0.000000)">
                    <g id="编组" transform="translate(13.000000, 13.000000)">
                        <path d="M10.2555408,-4.14336123e-16 L37.7444592,4.14336123e-16 C41.3105342,-2.4074122e-16 42.6036791,0.371302445 43.9073828,1.06853082 C45.2110865,1.76575919 46.2342408,2.78891348 46.9314692,4.09261719 C47.6286976,5.39632089 48,6.68946584 48,10.2555408 L48,37.7444592 C48,41.3105342 47.6286976,42.6036791 46.9314692,43.9073828 C46.2342408,45.2110865 45.2110865,46.2342408 43.9073828,46.9314692 C42.6036791,47.6286976 41.3105342,48 37.7444592,48 L10.2555408,48 C6.68946584,48 5.39632089,47.6286976 4.09261719,46.9314692 C2.78891348,46.2342408 1.76575919,45.2110865 1.06853082,43.9073828 C0.371302445,42.6036791 1.60494146e-16,41.3105342 -2.76224082e-16,37.7444592 L2.76224082e-16,10.2555408 C-1.60494146e-16,6.68946584 0.371302445,5.39632089 1.06853082,4.09261719 C1.76575919,2.78891348 2.78891348,1.76575919 4.09261719,1.06853082 C5.39632089,0.371302445 6.68946584,2.4074122e-16 10.2555408,-4.14336123e-16 Z" id="矩形"></path>
                        <g id="路径-2" transform="translate(6.000000, 6.000000)">
                            <mask id="mask-2" fill="white">
                                <use xlink:href="#path-1"></use>
                            </mask>
                            <path stroke="#D0D1DA" d="M14.1013686,0.5 L21.8986314,0.5 C26.6603859,0.5 28.3941403,0.978124093 30.1368519,1.91013647 C31.8410215,2.82153631 33.1784637,4.15897853 34.0898635,5.86314806 C35.0218759,7.60585969 35.5,9.33961414 35.5,14.1013686 L35.5,14.1013686 L35.5,21.8986314 C35.5,26.6603859 35.0218759,28.3941403 34.0898635,30.1368519 C33.1784637,31.8410215 31.8410215,33.1784637 30.1368519,34.0898635 C28.3941403,35.0218759 26.6603859,35.5 21.8986314,35.5 L21.8986314,35.5 L14.1013686,35.5 C9.33961414,35.5 7.60585969,35.0218759 5.86314806,34.0898635 C4.15897853,33.1784637 2.82153631,31.8410215 1.91013647,30.1368519 C0.978124093,28.3941403 0.5,26.6603859 0.5,21.8986314 L0.5,21.8986314 L0.5,14.1013686 C0.5,9.33961414 0.978124093,7.60585969 1.91013647,5.86314806 C2.82153631,4.15897853 4.15897853,2.82153631 5.86314806,1.91013647 C7.60585969,0.978124093 9.33961414,0.5 14.1013686,0.5 L14.1013686,0.5 Z"></path>
                            <g id="编组" mask="url(#mask-2)">
                                <g transform="translate(2.000000, 2.000000)" id="Iconly/Bold/Image">
                                    <g id="Image" transform="translate(2.666667, 2.666667)" fill="#254EC3" fill-rule="nonzero">
                                        <path d="M19.1117569,0 C23.6308062,0 26.6666667,3.17081726 26.6666667,7.88896127 L26.6666667,18.7777054 C26.6666667,23.4958494 23.6308062,26.6666667 19.1104207,26.6666667 L7.55490972,26.6666667 C3.03586043,26.6666667 0,23.4958494 0,18.7777054 L0,7.88896127 C0,3.17081726 3.03586043,0 7.55490972,0 L19.1117569,0 Z M20.5821228,14.0667355 C19.1528631,13.1750946 18.0494102,14.4272446 17.7517595,14.8276574 C17.464835,15.2143103 17.2181335,15.6408669 16.9580243,16.0674235 C16.3224998,17.120055 15.5944622,18.3336773 14.3341394,19.0395597 C12.502649,20.0536636 11.1122715,19.119367 10.1120579,18.4396285 C9.73664257,18.1864465 9.37195341,17.9470244 9.00860501,17.7874097 C8.11297134,17.4007568 7.30716918,17.8410733 6.11120325,19.3601651 C5.48372337,20.1541108 4.86160657,20.9411765 4.23144515,21.7254902 C3.85468906,22.1947024 3.94452058,22.9184727 4.45267203,23.2321981 C5.26383726,23.7316821 6.25332476,24 7.37152609,24 L7.37152609,24 L18.6085109,24 C19.2426946,24 19.8782191,23.9133127 20.4842467,23.7151703 C21.8491495,23.2693498 22.9324908,22.248366 23.4982954,20.8998968 C23.9756091,19.7660819 24.2075621,18.3900929 23.7610861,17.24527 C23.6122607,16.8654971 23.3896931,16.5118679 23.0772939,16.2008944 C22.258084,15.3876849 21.492505,14.628139 20.5821228,14.0667355 Z M8.66514424,5.33333333 C6.82694997,5.33333333 5.33333333,6.82897384 5.33333333,8.66666667 C5.33333333,10.5043595 6.82694997,12 8.66514424,12 C10.5019977,12 11.9969552,10.5043595 11.9969552,8.66666667 C11.9969552,6.82897384 10.5019977,5.33333333 8.66514424,5.33333333 Z"></path>
                                    </g>
                                </g>
                            </g>
                        </g>
                    </g>
                </g>
            </g>
        </g>
    </g>
</svg>