<?xml version="1.0" encoding="UTF-8"?>
<svg width="48px" height="48px" viewBox="0 0 48 48" version="1.1" xmlns="http://www.w3.org/2000/svg" xmlns:xlink="http://www.w3.org/1999/xlink">
    <title>icon/Components/icon-hoc-list</title>
    <g id="项目管理" stroke="none" stroke-width="1" fill="none" fill-rule="evenodd">
        <g id="2.-编辑" transform="translate(-148.000000, -709.000000)">
            <g id="Components/ComponentsSelectPanel" transform="translate(52.000000, 362.000000)">
                <g id="编组" transform="translate(4.000000, 193.000000)">
                    <g id="Card/Component备份-3" transform="translate(79.000000, 141.000000)">
                        <g id="编组" transform="translate(13.000000, 13.000000)">
                            <path d="M10.2555408,-4.14336123e-16 L37.7444592,4.14336123e-16 C41.3105342,-2.4074122e-16 42.6036791,0.371302445 43.9073828,1.06853082 C45.2110865,1.76575919 46.2342408,2.78891348 46.9314692,4.09261719 C47.6286976,5.39632089 48,6.68946584 48,10.2555408 L48,37.7444592 C48,41.3105342 47.6286976,42.6036791 46.9314692,43.9073828 C46.2342408,45.2110865 45.2110865,46.2342408 43.9073828,46.9314692 C42.6036791,47.6286976 41.3105342,48 37.7444592,48 L10.2555408,48 C6.68946584,48 5.39632089,47.6286976 4.09261719,46.9314692 C2.78891348,46.2342408 1.76575919,45.2110865 1.06853082,43.9073828 C0.371302445,42.6036791 1.60494146e-16,41.3105342 -2.76224082e-16,37.7444592 L2.76224082e-16,10.2555408 C-1.60494146e-16,6.68946584 0.371302445,5.39632089 1.06853082,4.09261719 C1.76575919,2.78891348 2.78891348,1.76575919 4.09261719,1.06853082 C5.39632089,0.371302445 6.68946584,2.4074122e-16 10.2555408,-4.14336123e-16 Z" id="矩形"></path>
                            <rect id="矩形" fill="#254EC3" x="10" y="11" width="6" height="6" rx="2"></rect>
                            <rect id="矩形备份" fill="#254EC3" x="10" y="21" width="6" height="6" rx="2"></rect>
                            <rect id="矩形备份-2" fill="#254EC3" x="10" y="31" width="6" height="6" rx="2"></rect>
                            <rect id="矩形备份-3" fill="#D0D1DA" fill-rule="nonzero" x="18" y="13" width="20" height="2" rx="1"></rect>
                            <rect id="矩形备份-5" fill="#D0D1DA" fill-rule="nonzero" x="18" y="23" width="20" height="2" rx="1"></rect>
                            <rect id="矩形备份-6" fill="#D0D1DA" fill-rule="nonzero" x="18" y="33" width="20" height="2" rx="1"></rect>
                        </g>
                    </g>
                </g>
            </g>
        </g>
    </g>
</svg>