<?xml version="1.0" encoding="UTF-8"?>
<svg width="24px" height="24px" viewBox="0 0 24 24" version="1.1" xmlns="http://www.w3.org/2000/svg" xmlns:xlink="http://www.w3.org/1999/xlink">
    <title>icon/bulkOutline/icon-preview</title>
    <g id="项目管理" stroke="none" stroke-width="1" fill="none" fill-rule="evenodd" opacity="0.7">
        <g id="2.-编辑" transform="translate(-1352.000000, -12.000000)">
            <g id="icon/bulkOutline/icon-preview" transform="translate(1352.000000, 12.000000)">
                <rect id="矩形" x="0" y="0" width="24" height="24"></rect>
                <path d="M12.7602274,4.75 C14.5778785,4.75 16.9315846,7.3123314 18.7796856,10.0358487 C19.9097883,11.7012632 20.8522584,13.4906713 21.3677197,15.0019943 C21.7412996,16.0973237 21.9837954,17.0716688 21.6396205,17.5788739 C20.8422083,18.7540077 16.6944992,19.135901 12.7602274,19.135901 L12.440835,19.135056 C8.60420228,19.1146787 4.65669471,18.7222473 3.88083419,17.5788739 C3.5366593,17.0716688 3.77915516,16.0973237 4.15273504,15.0019943 C4.66819627,13.4906713 5.61066641,11.7012632 6.74076909,10.0358487 C8.5888701,7.3123314 10.9425762,4.75 12.7602274,4.75 Z" id="三角形" stroke="#131746" stroke-width="1.5" transform="translate(12.760227, 11.942950) rotate(-270.000000) translate(-12.760227, -11.942950) "></path>
                <path d="M12.5,9.5 C13.7657007,9.5 15.9444765,13.1149871 15.4200139,13.906423 C14.8955514,14.697859 10.1044486,14.697859 9.57998605,13.906423 C9.05552347,13.1149871 11.2342993,9.5 12.5,9.5 Z" id="三角形" fill="#D0D1DA" transform="translate(12.500000, 12.000000) rotate(-270.000000) translate(-12.500000, -12.000000) "></path>
            </g>
        </g>
    </g>
</svg>