<?xml version="1.0" encoding="UTF-8"?>
<svg width="48px" height="48px" viewBox="0 0 48 48" version="1.1" xmlns="http://www.w3.org/2000/svg" xmlns:xlink="http://www.w3.org/1999/xlink">
    <title>icon/Components/icon-hoc-foreword</title>
    <g id="项目管理" stroke="none" stroke-width="1" fill="none" fill-rule="evenodd">
        <g id="2.-编辑" transform="translate(-223.000000, -709.000000)">
            <g id="Components/ComponentsSelectPanel" transform="translate(52.000000, 362.000000)">
                <g id="编组" transform="translate(4.000000, 193.000000)">
                    <g id="Card/Component备份-5" transform="translate(154.000000, 141.000000)">
                        <g id="编组-2" transform="translate(13.000000, 13.000000)">
                            <path d="M10.2555408,-4.14336123e-16 L37.7444592,4.14336123e-16 C41.3105342,-2.4074122e-16 42.6036791,0.371302445 43.9073828,1.06853082 C45.2110865,1.76575919 46.2342408,2.78891348 46.9314692,4.09261719 C47.6286976,5.39632089 48,6.68946584 48,10.2555408 L48,37.7444592 C48,41.3105342 47.6286976,42.6036791 46.9314692,43.9073828 C46.2342408,45.2110865 45.2110865,46.2342408 43.9073828,46.9314692 C42.6036791,47.6286976 41.3105342,48 37.7444592,48 L10.2555408,48 C6.68946584,48 5.39632089,47.6286976 4.09261719,46.9314692 C2.78891348,46.2342408 1.76575919,45.2110865 1.06853082,43.9073828 C0.371302445,42.6036791 1.60494146e-16,41.3105342 -2.76224082e-16,37.7444592 L2.76224082e-16,10.2555408 C-1.60494146e-16,6.68946584 0.371302445,5.39632089 1.06853082,4.09261719 C1.76575919,2.78891348 2.78891348,1.76575919 4.09261719,1.06853082 C5.39632089,0.371302445 6.68946584,2.4074122e-16 10.2555408,-4.14336123e-16 Z" id="矩形"></path>
                            <g id="编组" transform="translate(9.000000, 11.000000)" fill-rule="nonzero">
                                <g id="icon-引言" transform="translate(15.000000, 13.500000) scale(-1, 1) translate(-15.000000, -13.500000) ">
                                    <path d="M0,27 L0,27 C1.70307004,26.7894679 3.35110112,26.2615792 4.85795943,25.4438966 L4.8579594,25.4438967 C6.3146797,24.6595031 7.61698967,23.6194177 8.70207082,22.3738059 L8.70207126,22.3738054 C9.79065354,21.1085872 10.6355615,19.6543678 11.1944102,18.084091 C11.7858132,16.4583254 12.0537532,14.7196102 11.9970274,12.8691431 L11.9970274,0 L0,0 L0,12.9532699 L5.57610051,12.9532699 C5.57610051,15.0284358 5.18143087,16.7803674 4.3932972,18.2102812 C3.60516353,19.6401868 2.13993395,20.720428 0,21.4485986 L0,27 L0,27 Z" id="形状" fill="#D0D1DA"></path>
                                    <path d="M29.9925658,1.77635684e-15 L29.9925658,12.8691431 C30.0492917,14.7196102 29.7813516,16.4583254 29.1899486,18.084091 C28.6310999,19.6543678 27.786192,21.1085872 26.6976097,22.3738054 L26.6976097,22.3738054 L26.3963394,22.7083848 C25.3744684,23.806411 24.177789,24.7308116 22.8534978,25.4438967 L22.8534978,25.4438967 L22.473892,25.642264 C21.0715855,26.3473568 19.556686,26.8070123 17.9955384,27 L17.9995384,26.999 L17.9996137,21.4472112 C20.0184951,20.7595349 21.4363644,19.7582438 22.251211,18.4453607 L22.3888356,18.2102812 C23.1769693,16.7803674 23.5716389,15.0284358 23.5716389,12.9532699 L23.5716389,12.9532699 L17.9995384,12.953 L18,0 L29.9925658,1.77635684e-15 Z" id="形状结合" fill="#254EC3"></path>
                                </g>
                            </g>
                        </g>
                    </g>
                </g>
            </g>
        </g>
    </g>
</svg>