<?xml version="1.0" encoding="UTF-8"?>
<svg width="48px" height="48px" viewBox="0 0 48 48" version="1.1" xmlns="http://www.w3.org/2000/svg" xmlns:xlink="http://www.w3.org/1999/xlink">
    <title>icon/Components/icon-hoc-swiper</title>
    <defs>
        <path d="M7.6916556,-3.10752092e-16 L28.3083444,3.10752092e-16 C30.9829006,-1.80555915e-16 31.9527593,0.278476833 32.9305371,0.801398111 C33.9083149,1.32431939 34.6756806,2.09168511 35.1986019,3.06946289 C35.7215232,4.04724067 36,5.01709938 36,7.6916556 L36,20.3083444 C36,22.9829006 35.7215232,23.9527593 35.1986019,24.9305371 C34.6756806,25.9083149 33.9083149,26.6756806 32.9305371,27.1986019 C31.9527593,27.7215232 30.9829006,28 28.3083444,28 L7.6916556,28 C5.01709938,28 4.04724067,27.7215232 3.06946289,27.1986019 C2.09168511,26.6756806 1.32431939,25.9083149 0.801398111,24.9305371 C0.278476833,23.9527593 -4.0652614e-16,22.9829006 6.99666078e-16,20.3083444 L2.07168062e-16,7.6916556 C-1.2037061e-16,5.01709938 0.278476833,4.04724067 0.801398111,3.06946289 C1.32431939,2.09168511 2.09168511,1.32431939 3.06946289,0.801398111 C4.04724067,0.278476833 5.01709938,1.80555915e-16 7.6916556,-3.10752092e-16 Z" id="path-1"></path>
        <filter id="filter-3">
            <feColorMatrix in="SourceGraphic" type="matrix" values="0 0 0 0 0.144504 0 0 0 0 0.305805 0 0 0 0 0.765729 0 0 0 1.000000 0"></feColorMatrix>
        </filter>
    </defs>
    <g id="项目管理" stroke="none" stroke-width="1" fill="none" fill-rule="evenodd">
        <g id="2.-编辑" transform="translate(-148.000000, -608.000000)">
            <g id="Components/ComponentsSelectPanel" transform="translate(52.000000, 362.000000)">
                <g id="编组" transform="translate(4.000000, 193.000000)">
                    <g id="Card/Component备份" transform="translate(79.000000, 40.000000)">
                        <g id="编组" transform="translate(13.000000, 13.000000)">
                            <path d="M10.2555408,-4.14336123e-16 L37.7444592,4.14336123e-16 C41.3105342,-2.4074122e-16 42.6036791,0.371302445 43.9073828,1.06853082 C45.2110865,1.76575919 46.2342408,2.78891348 46.9314692,4.09261719 C47.6286976,5.39632089 48,6.68946584 48,10.2555408 L48,37.7444592 C48,41.3105342 47.6286976,42.6036791 46.9314692,43.9073828 C46.2342408,45.2110865 45.2110865,46.2342408 43.9073828,46.9314692 C42.6036791,47.6286976 41.3105342,48 37.7444592,48 L10.2555408,48 C6.68946584,48 5.39632089,47.6286976 4.09261719,46.9314692 C2.78891348,46.2342408 1.76575919,45.2110865 1.06853082,43.9073828 C0.371302445,42.6036791 1.60494146e-16,41.3105342 -2.76224082e-16,37.7444592 L2.76224082e-16,10.2555408 C-1.60494146e-16,6.68946584 0.371302445,5.39632089 1.06853082,4.09261719 C1.76575919,2.78891348 2.78891348,1.76575919 4.09261719,1.06853082 C5.39632089,0.371302445 6.68946584,2.4074122e-16 10.2555408,-4.14336123e-16 Z" id="矩形"></path>
                            <g id="路径-2" transform="translate(6.000000, 10.000000)">
                                <mask id="mask-2" fill="white">
                                    <use xlink:href="#path-1"></use>
                                </mask>
                                <path stroke="#D0D1DA" d="M7.6916556,0.5 L28.3083444,0.5 C30.841302,0.5 31.7668409,0.746060066 32.6947377,1.24230471 C33.5840924,1.71793682 34.2820632,2.4159076 34.7576953,3.30526232 C35.2539399,4.23315913 35.5,5.15869799 35.5,7.6916556 L35.5,7.6916556 L35.5,20.3083444 C35.5,22.841302 35.2539399,23.7668409 34.7576953,24.6947377 C34.2820632,25.5840924 33.5840924,26.2820632 32.6947377,26.7576953 C31.7668409,27.2539399 30.841302,27.5 28.3083444,27.5 L28.3083444,27.5 L7.6916556,27.5 C5.15869799,27.5 4.23315913,27.2539399 3.30526232,26.7576953 C2.4159076,26.2820632 1.71793682,25.5840924 1.24230471,24.6947377 C0.746060066,23.7668409 0.5,22.841302 0.5,20.3083444 L0.5,20.3083444 L0.5,7.6916556 C0.5,5.15869799 0.746060066,4.23315913 1.24230471,3.30526232 C1.71793682,2.4159076 2.4159076,1.71793682 3.30526232,1.24230471 C4.23315913,0.746060066 5.15869799,0.5 7.6916556,0.5 L7.6916556,0.5 Z"></path>
                                <g id="编组" mask="url(#mask-2)">
                                    <g transform="translate(10.000000, 4.000000)" id="Iconly/Bold/Image">
                                        <g id="Image" transform="translate(1.333333, 1.333333)" fill="#254EC3" fill-rule="nonzero">
                                            <path d="M9.55587847,0 C11.8154031,0 13.3333333,1.58540863 13.3333333,3.94448063 L13.3333333,9.3888527 C13.3333333,11.7479247 11.8154031,13.3333333 9.55521037,13.3333333 L3.77745486,13.3333333 C1.51793022,13.3333333 0,11.7479247 0,9.3888527 L0,3.94448063 C0,1.58540863 1.51793022,0 3.77745486,0 L9.55587847,0 Z M10.2910614,7.03336773 C9.57643155,6.5875473 9.02470511,7.21362229 8.87587976,7.41382869 C8.73241748,7.60715514 8.60906673,7.82043344 8.47901214,8.03371173 C8.16124989,8.56002752 7.79723112,9.16683867 7.1670697,9.51977984 C6.25132448,10.0268318 5.55613577,9.55968352 5.05602894,9.21981424 C4.86832128,9.09322325 4.6859767,8.97351221 4.50430251,8.89370485 C4.05648567,8.7003784 3.65358459,8.92053664 3.05560163,9.68008256 C2.74186169,10.0770554 2.43080328,10.4705882 2.11572257,10.8627451 C1.92734453,11.0973512 1.97226029,11.4592363 2.22633601,11.6160991 C2.63191863,11.8658411 3.12666238,12 3.68576305,12 L3.68576305,12 L9.30425545,12 C9.62134731,12 9.93910956,11.9566563 10.2421233,11.8575851 C10.9245748,11.6346749 11.4662454,11.124183 11.7491477,10.4499484 C11.9878046,9.88304094 12.1037811,9.19504644 11.880543,8.62263502 C11.8061304,8.43274854 11.6948465,8.25593395 11.5386469,8.1004472 C11.129042,7.69384245 10.7462525,7.31406949 10.2910614,7.03336773 Z M4.33257212,2.66666667 C3.41347499,2.66666667 2.66666667,3.41448692 2.66666667,4.33333333 C2.66666667,5.25217975 3.41347499,6 4.33257212,6 C5.25099887,6 5.99847758,5.25217975 5.99847758,4.33333333 C5.99847758,3.41448692 5.25099887,2.66666667 4.33257212,2.66666667 Z"></path>
                                        </g>
                                    </g>
                                </g>
                                <g filter="url(#filter-3)" id="10">
                                    <g mask="url(#mask-2)">
                                        <g transform="translate(11.000000, 24.000000)" fill="#D8D8D8" stroke="#979797">
                                            <rect id="矩形" x="0.5" y="0.5" width="1" height="1" rx="0.5"></rect>
                                            <rect id="矩形备份" x="4.5" y="0.5" width="1" height="1" rx="0.5"></rect>
                                            <rect id="矩形备份-2" x="8.5" y="0.5" width="1" height="1" rx="0.5"></rect>
                                            <rect id="矩形备份-3" x="12.5" y="0.5" width="1" height="1" rx="0.5"></rect>
                                        </g>
                                    </g>
                                </g>
                            </g>
                        </g>
                    </g>
                </g>
            </g>
        </g>
    </g>
</svg>