<svg xmlns="http://www.w3.org/2000/svg" width="48" height="48" viewBox="0 0 48 48">
  <defs>
    <filter id="icon-hoc-text-a">
      <feColorMatrix in="SourceGraphic" values="0 0 0 0 0.144504 0 0 0 0 0.305805 0 0 0 0 0.765729 0 0 0 1.000000 0"/>
    </filter>
  </defs>
  <g fill="none" fill-rule="evenodd">
    <path d="M10.2555408,-4.14336123e-16 L37.7444592,4.14336123e-16 C41.3105342,-2.4074122e-16 42.6036791,0.371302445 43.9073828,1.06853082 C45.2110865,1.76575919 46.2342408,2.78891348 46.9314692,4.09261719 C47.6286976,5.39632089 48,6.68946584 48,10.2555408 L48,37.7444592 C48,41.3105342 47.6286976,42.6036791 46.9314692,43.9073828 C46.2342408,45.2110865 45.2110865,46.2342408 43.9073828,46.9314692 C42.6036791,47.6286976 41.3105342,48 37.7444592,48 L10.2555408,48 C6.68946584,48 5.39632089,47.6286976 4.09261719,46.9314692 C2.78891348,46.2342408 1.76575919,45.2110865 1.06853082,43.9073828 C0.371302445,42.6036791 1.60494146e-16,41.3105342 -2.76224082e-16,37.7444592 L2.76224082e-16,10.2555408 C-1.60494146e-16,6.68946584 0.371302445,5.39632089 1.06853082,4.09261719 C1.76575919,2.78891348 2.78891348,1.76575919 4.09261719,1.06853082 C5.39632089,0.371302445 6.68946584,2.4074122e-16 10.2555408,-4.14336123e-16 Z"/>
    <g filter="url(#icon-hoc-text-a)" transform="translate(12 13)">
      <rect width="24" height="24"/>
      <path fill="#131746" d="M12,5 L12.0006762,5.03167867 C12.4316399,5.14292438 12.75,5.53428369 12.75,6 L12.75,18.25 C12.75,18.6642136 12.4142136,19 12,19 C11.5857864,19 11.25,18.6642136 11.25,18.25 L11.25,6.5 L4.75,6.5 C4.33578644,6.5 4,6.16421356 4,5.75 C4,5.33578644 4.33578644,5 4.75,5 L12,5 Z M19.25,5 C19.6642136,5 20,5.33578644 20,5.75 C20,6.16421356 19.6642136,6.5 19.25,6.5 L15.75,6.5 C15.3357864,6.5 15,6.16421356 15,5.75 C15,5.33578644 15.3357864,5 15.75,5 L19.25,5 Z"/>
    </g>
    <rect width="28" height="1" x="10" y="12" fill="#D0D1DA"/>
    <rect width="28" height="1" x="10" y="37" fill="#D0D1DA"/>
  </g>
</svg>
