<?xml version="1.0" encoding="UTF-8"?>
<svg width="24px" height="25px" viewBox="0 0 24 25" version="1.1" xmlns="http://www.w3.org/2000/svg" xmlns:xlink="http://www.w3.org/1999/xlink">
    <title>icon-project-fill</title>
    <defs>
        <filter id="filter-1">
            <feColorMatrix in="SourceGraphic" type="matrix" values="0 0 0 0 1.000000 0 0 0 0 1.000000 0 0 0 0 1.000000 0 0 0 1.000000 0"></feColorMatrix>
        </filter>
    </defs>
    <g id="项目管理" stroke="none" stroke-width="1" fill="none" fill-rule="evenodd">
        <g id="1.4-项目列表" transform="translate(-16.000000, -104.000000)">
            <g id="Icon" transform="translate(0.000000, 88.000000)" filter="url(#filter-1)">
                <g transform="translate(16.000000, 16.000000)" id="icon-project-fill">
                    <rect id="矩形" x="0" y="0" width="24" height="24"></rect>
                    <path d="M7.62269904,12 C8.39774494,12 8.97637967,12.1392384 9.46526856,12.4006991 C9.95415744,12.6621597 10.3378403,13.0458426 10.5993009,13.5347314 C10.8607616,14.0236203 11,14.6022551 11,15.377301 L11,16.622699 C11,17.3977449 10.8607616,17.9763797 10.5993009,18.4652686 C10.3378403,18.9541574 9.95415744,19.3378403 9.46526856,19.5993009 C8.97637967,19.8607616 8.39774494,20 7.62269904,20 L7.37730096,20 C6.60225506,20 6.02362033,19.8607616 5.53473144,19.5993009 C5.04584256,19.3378403 4.66215969,18.9541574 4.40069906,18.4652686 C4.13923842,17.9763797 4,17.3977449 4,16.622699 L4,15.377301 C4,14.6022551 4.13923842,14.0236203 4.40069906,13.5347314 C4.66215969,13.0458426 5.04584256,12.6621597 5.53473144,12.4006991 C6.02362033,12.1392384 6.60225506,12 7.37730096,12 L7.62269904,12 Z M17,14 C18.6568542,14 20,15.3431458 20,17 C20,18.6568542 18.6568542,20 17,20 L16,20 C14.3431458,20 13,18.6568542 13,17 C13,15.3431458 14.3431458,14 16,14 L17,14 Z M16.622699,4 C17.3977449,4 17.9763797,4.13923842 18.4652686,4.40069906 C18.9541574,4.66215969 19.3378403,5.04584256 19.5993009,5.53473144 C19.8607616,6.02362033 20,6.60225506 20,7.37730096 L20,8.62269904 C20,9.39774494 19.8607616,9.97637967 19.5993009,10.4652686 C19.3378403,10.9541574 18.9541574,11.3378403 18.4652686,11.5993009 C17.9763797,11.8607616 17.3977449,12 16.622699,12 L16.377301,12 C15.6022551,12 15.0236203,11.8607616 14.5347314,11.5993009 C14.0458426,11.3378403 13.6621597,10.9541574 13.4006991,10.4652686 C13.1392384,9.97637967 13,9.39774494 13,8.62269904 L13,7.37730096 C13,6.60225506 13.1392384,6.02362033 13.4006991,5.53473144 C13.6621597,5.04584256 14.0458426,4.66215969 14.5347314,4.40069906 C15.0236203,4.13923842 15.6022551,4 16.377301,4 L16.622699,4 Z M8,4 C9.65685425,4 11,5.34314575 11,7 C11,8.65685425 9.65685425,10 8,10 L7,10 C5.34314575,10 4,8.65685425 4,7 C4,5.34314575 5.34314575,4 7,4 L8,4 Z" id="形状结合" fill="#131746"></path>
                </g>
            </g>
        </g>
    </g>
</svg>