<?xml version="1.0" encoding="UTF-8"?>
<svg width="24px" height="25px" viewBox="0 0 24 25" version="1.1" xmlns="http://www.w3.org/2000/svg" xmlns:xlink="http://www.w3.org/1999/xlink">
    <title>icon/icon-menu-collapse</title>
    <g id="项目管理" stroke="none" stroke-width="1" fill="none" fill-rule="evenodd" opacity="0.7">
        <g id="1.4-项目列表" transform="translate(-272.000000, -20.000000)">
            <g id="Header" transform="translate(256.000000, 0.000000)">
                <g id="icon-menu-collapse" transform="translate(16.000000, 20.000000)">
                    <rect id="矩形" x="0" y="0" width="24" height="24"></rect>
                    <path d="M19.25,17 C19.6642136,17 20,17.3357864 20,17.75 C20,18.1642136 19.6642136,18.5 19.25,18.5 L4.75,18.5 C4.33578644,18.5 4,18.1642136 4,17.75 C4,17.3357864 4.33578644,17 4.75,17 L19.25,17 Z M5,9.66982521 C5,9.19448527 5.73846155,8.83798032 6.10769231,9.07565029 L6.10769231,9.07565029 L8.44615384,11.45235 C8.69230769,11.69002 8.69230769,12.1653599 8.44615384,12.4030299 L8.44615384,12.4030299 L6.10769231,14.7797296 C5.73846153,15.2550695 5,14.8985645 5,14.3043896 L5,14.3043896 Z M19.25,11 C19.6642136,11 20,11.3357864 20,11.75 C20,12.1642136 19.6642136,12.5 19.25,12.5 L10.75,12.5 C10.3357864,12.5 10,12.1642136 10,11.75 C10,11.3357864 10.3357864,11 10.75,11 L19.25,11 Z M19.25,5 C19.6642136,5 20,5.33578644 20,5.75 C20,6.16421356 19.6642136,6.5 19.25,6.5 L4.75,6.5 C4.33578644,6.5 4,6.16421356 4,5.75 C4,5.33578644 4.33578644,5 4.75,5 L19.25,5 Z" id="形状结合" fill="#131746"></path>
                </g>
            </g>
        </g>
    </g>
</svg>