<?xml version="1.0" encoding="UTF-8"?>
<svg width="25px" height="24px" viewBox="0 0 25 24" version="1.1" xmlns="http://www.w3.org/2000/svg" xmlns:xlink="http://www.w3.org/1999/xlink">
    <title>icon/icon-more</title>
    <g id="项目管理" stroke="none" stroke-width="1" fill="none" fill-rule="evenodd" opacity="0.3">
        <g id="1.4-项目列表" transform="translate(-499.000000, -793.000000)">
            <g id="main" transform="translate(272.000000, 88.000000)">
                <g id="Card/Project/Item备份-4" transform="translate(0.000000, 413.000000)">
                    <g id="icon-more" transform="translate(227.699248, 292.000000)">
                        <rect id="矩形" x="0" y="0" width="24.1804511" height="24"></rect>
                        <path d="M12.593985,16 C13.4286409,16 14.1052632,16.6715729 14.1052632,17.5 C14.1052632,18.3284271 13.4286409,19 12.593985,19 C11.7593291,19 11.0827068,18.3284271 11.0827068,17.5 C11.0827068,16.6715729 11.7593291,16 12.593985,16 Z M12.593985,11 C13.4286409,11 14.1052632,11.6715729 14.1052632,12.5 C14.1052632,13.3284271 13.4286409,14 12.593985,14 C11.7593291,14 11.0827068,13.3284271 11.0827068,12.5 C11.0827068,11.6715729 11.7593291,11 12.593985,11 Z M12.593985,6 C13.4286409,6 14.1052632,6.67157288 14.1052632,7.5 C14.1052632,8.32842712 13.4286409,9 12.593985,9 C11.7593291,9 11.0827068,8.32842712 11.0827068,7.5 C11.0827068,6.67157288 11.7593291,6 12.593985,6 Z" id="形状结合" fill="#131746"></path>
                    </g>
                </g>
            </g>
        </g>
    </g>
</svg>