<?xml version="1.0" encoding="UTF-8"?>
<svg width="24px" height="25px" viewBox="0 0 24 25" version="1.1" xmlns="http://www.w3.org/2000/svg" xmlns:xlink="http://www.w3.org/1999/xlink">
    <title>icon/icon-add-outline</title>
    <g id="项目管理" stroke="none" stroke-width="1" fill="none" fill-rule="evenodd" opacity="0.7">
        <g id="1.4-项目列表" transform="translate(-16.000000, -172.000000)">
            <g id="编组-3" transform="translate(0.000000, 88.000000)">
                <g id="Base/Cell备份" transform="translate(0.000000, 68.000000)">
                    <g id="icon-add-outline" transform="translate(16.000000, 16.000000)">
                        <rect id="矩形" x="0" y="0" width="24" height="24"></rect>
                        <g id="编组" fill="#131746" fill-rule="nonzero">
                            <g id="icon/icon-plus" transform="translate(-0.000000, -0.000000)">
                                <path d="M15.7554969,2 C19.5901495,2 22,4.39226033 22,8.25329815 L22,8.25329815 L22,10.82146 C22,11.0235967 21.9191181,11.2173289 21.775362,11.3594326 C21.631606,11.5015362 21.4369515,11.5801868 21.2348285,11.5778364 L21.2348285,11.5778364 L21.2348285,11.5602463 C20.8122359,11.5602463 20.469657,11.2176673 20.469657,10.7950748 L20.469657,10.7950748 L20.469657,8.25329815 C20.469657,5.20140721 18.7985928,3.53034301 15.7554969,3.53034301 L15.7554969,3.53034301 L8.25329815,3.53034301 C5.21020229,3.53034301 3.53034301,5.21020229 3.53034301,8.25329815 L3.53034301,8.25329815 L3.53034301,15.7554969 C3.53034301,18.7897977 5.21020229,20.469657 8.25329815,20.469657 L8.25329815,20.469657 L15.7554969,20.469657 C18.7985928,20.469657 20.469657,18.7897977 20.469657,15.7554969 C20.469657,15.3329044 20.812236,14.9903255 21.2348285,14.9903255 C21.657421,14.9903255 22,15.3329044 22,15.7554969 C22,19.6077397 19.6077397,22 15.7554969,22 L15.7554969,22 L8.25329815,22 C4.39226033,22 2,19.6077397 2,15.7554969 L2,15.7554969 L2,8.25329815 C2,4.39226033 4.39226033,2 8.25329815,2 L8.25329815,2 Z M12.0703606,13.644679 C12.2741412,13.6491963 12.4674733,13.7357687 12.6065507,13.8847802 C12.7456281,14.0337917 12.8186774,14.232628 12.8091469,14.4362357 L12.8091469,14.4362357 L12.8091469,15.4036939 L12.7955242,15.5238147 C12.7649048,15.6813039 12.685283,15.826302 12.5665048,15.9371617 C12.4180321,16.0757363 12.2205591,16.1496 12.0175901,16.1424802 C11.5970352,16.1234633 11.2688063,15.7717894 11.2788039,15.3509235 L11.2788039,15.3509235 L11.2788039,14.3834653 C11.2856823,14.180488 11.3729732,13.9885721 11.5214459,13.8499975 C11.6699187,13.7114229 11.8673917,13.6375592 12.0703606,13.644679 Z M12.0351803,7.84872469 C12.1203259,7.84870167 12.2039709,7.86303427 12.2828907,7.89036543 C12.5977648,7.98519473 12.826737,8.27720335 12.826737,8.62269129 L12.826,11.014 L15.4300792,11.0149516 C15.5177801,11.0139258 15.6040633,11.0281495 15.685387,11.0561799 C15.8039309,11.0923451 15.9138048,11.1579175 16.0032321,11.2483847 C16.1453357,11.3921407 16.2239863,11.5867952 16.2216871,11.7889182 C16.2216871,12.2047356 15.8897621,12.5445307 15.4740545,12.5540897 L8.65787159,12.5540897 C8.58627001,12.552462 8.5171219,12.5411482 8.45166777,12.5214177 C8.11715106,12.43812 7.87028403,12.1381217 7.86626366,11.7801231 C7.86396444,11.5780001 7.94261504,11.3833456 8.08471869,11.2395896 C8.22682234,11.0958336 8.42055461,11.014938 8.62269129,11.0149516 L8.62269129,11.0149516 L11.2612137,11.0149516 L11.2612137,8.61389622 C11.2706744,8.19186946 11.613073,7.85336175 12.0351803,7.84872469 Z" id="Plus"></path>
                            </g>
                        </g>
                    </g>
                </g>
            </g>
        </g>
    </g>
</svg>