<?xml version="1.0" encoding="UTF-8"?>
<svg width="24px" height="24px" viewBox="0 0 24 24" version="1.1" xmlns="http://www.w3.org/2000/svg" xmlns:xlink="http://www.w3.org/1999/xlink">
    <title>Iconly/Two-tone/Notification</title>
    <g id="Iconly/Two-tone/Notification" stroke="none" stroke-width="1" fill="none" fill-rule="evenodd" stroke-linecap="round" stroke-linejoin="round">
        <g id="Notification" transform="translate(3.500000, 2.000000)" stroke="#200E32" stroke-width="1.5">
            <path d="M0.00082545485,11.7871203 L0.00082545485,11.568135 C0.0329512746,10.9202451 0.240598836,10.2924906 0.602355621,9.74960514 C1.20450201,9.09746185 1.61670318,8.29830554 1.79571385,7.43597814 C1.79571385,6.76950123 1.79571385,6.09350321 1.85392645,5.4270263 C2.15469153,2.21841601 5.32727806,3.37507799e-14 8.46105618,3.37507799e-14 L8.53867298,3.37507799e-14 C11.6724511,3.37507799e-14 14.8450376,2.21841601 15.1555048,5.4270263 C15.2137174,6.09350321 15.1555048,6.76950123 15.2040153,7.43597814 C15.3854338,8.30030508 15.7972211,9.10194449 16.3973735,9.75912624 C16.7618363,10.2972046 16.9698126,10.9226612 16.9989037,11.568135 L16.9989037,11.7775992 C17.0205591,12.6480449 16.720769,13.4968208 16.1548211,14.167395 C15.4069586,14.9514753 14.392113,15.4392693 13.3024038,15.5384332 C10.1069938,15.8812057 6.8830333,15.8812057 3.68762325,15.5384332 C2.59914366,15.4349924 1.58575794,14.9479001 0.835206008,14.167395 C0.278,13.496309 -0.0177593319,12.6525831 0.00082545485,11.7871203 Z" id="Path_425"></path>
            <path d="M6.05493552,18.8517756 C6.55421005,19.478449 7.28739599,19.8840184 8.09222803,19.978725 C8.89706007,20.0734316 9.70716835,19.8494655 10.3432635,19.3563938 C10.5389031,19.2105605 10.7149406,19.0410062 10.8671768,18.8517756" id="Path_421" opacity="0.400000006"></path>
        </g>
    </g>
</svg>