<?xml version="1.0" encoding="UTF-8"?>
<svg width="32px" height="33px" viewBox="0 0 32 33" version="1.1" xmlns="http://www.w3.org/2000/svg" xmlns:xlink="http://www.w3.org/1999/xlink">
    <title>icon-helper</title>
    <g id="项目管理" stroke="none" stroke-width="1" fill="none" fill-rule="evenodd">
        <g id="1.4-项目列表" transform="translate(-1376.000000, -793.000000)" fill-rule="nonzero">
            <g id="Helper" transform="translate(1368.000000, 785.000000)">
                <g id="icon-helper" transform="translate(8.000000, 8.000000)">
                    <rect id="矩形" fill="#000000" opacity="0" x="0" y="0" width="32" height="32"></rect>
                    <path d="M15.5000027,23.5150581 C16.2156951,23.5150581 16.8628707,23.7977181 17.3316226,24.2523488 C17.8070406,24.7134449 18.0994411,25.3509052 18.0994411,26.0540541 C18.0994411,26.7572031 17.8070406,27.3946634 17.3316226,27.8557594 C16.8628707,28.3103902 16.2156951,28.5930502 15.5000027,28.5930502 C14.7843103,28.5930502 14.1371346,28.3103902 13.6683827,27.8557594 C13.1929647,27.3946634 12.9005642,26.7572031 12.9005642,26.0540541 C12.9005642,25.3509052 13.1929647,24.7134449 13.6683827,24.2523488 C14.1371346,23.7977181 14.7843103,23.5150581 15.5000027,23.5150581 Z M15.0604808,3.40803064 C17.2433058,3.37435423 19.4384898,4.12795587 21.1345965,5.67186003 C22.7466078,7.25908349 23.5237183,9.16190224 23.5523539,11.0131006 C23.5819779,12.9281969 22.8119222,14.7960759 21.2885671,16.2048587 C20.6673856,16.7822323 20.2552372,17.1173924 19.739943,17.4949394 L19.739943,17.4949394 L18.6990869,18.2346097 C17.6136304,19.3747095 17.4555816,19.7482436 17.4555816,20.3088806 C17.4555816,20.9096846 17.205959,21.4544794 16.7997028,21.8484971 C16.4001127,22.2360496 15.8484807,22.4772203 15.2383123,22.4772203 C14.6281688,22.4772203 14.076528,22.2360478 13.676928,21.8484857 C13.2706719,21.4544681 13.0210431,20.9096771 13.0210431,20.3088806 C13.0210431,18.9440934 13.321052,17.8240145 13.9237433,16.864887 C14.3379211,16.205842 14.838709,15.6755895 15.6295305,15.0674917 L15.6295305,15.0674917 L16.8131082,14.216325 C17.7310173,13.5177181 17.8780701,13.3924114 18.0255864,13.2560588 C18.7090141,12.6408648 19.081902,11.8901566 19.1339211,11.139725 C19.185447,10.3964093 18.9190435,9.66197374 18.3569552,9.08363818 C17.4282916,8.23727438 16.3175073,7.8079119 15.2324544,7.77625063 C14.1293725,7.74406329 13.0544009,8.1234366 12.2474113,8.88225384 L12.2474113,8.88225384 L11.1869574,9.91168797 C10.7561969,10.3302591 10.1916445,10.5413287 9.62614552,10.5418305 C9.06067377,10.5423324 8.49573752,10.3322847 8.06417266,9.91447662 C7.63042101,9.49452802 7.41211642,8.94432534 7.40704016,8.39312009 C7.40196129,7.84163021 7.61031994,7.28751186 8.04300304,6.85336192 L8.04300304,6.85336192 L9.06637073,5.85873809 C10.7087721,4.26293254 12.8772096,3.44171394 15.0604808,3.40803064 Z" id="形状结合" stroke="#FFFFFF" stroke-width="1.18610034" fill="#131746" opacity="0.7"></path>
                </g>
            </g>
        </g>
    </g>
</svg>