<?xml version="1.0" encoding="UTF-8"?>
<svg width="76px" height="78px" viewBox="0 0 76 78" version="1.1" xmlns="http://www.w3.org/2000/svg" xmlns:xlink="http://www.w3.org/1999/xlink">
    <title>img-no-message</title>
    <g id="项目管理" stroke="none" stroke-width="1" fill="none" fill-rule="evenodd">
        <g id="1.4-项目列表" transform="translate(-1186.000000, -188.000000)">
            <g id="Group-26-Copy" transform="translate(1056.000000, 71.000055)">
                <g id="bells-(1)" transform="translate(130.000000, 118.000000)">
                    <g id="编组" transform="translate(7.000000, 3.000000)" opacity="0.157620385" stroke="#200E32" stroke-linecap="round" stroke-linejoin="round" stroke-width="4">
                        <g id="Notification" transform="translate(9.333333, 5.333333)">
                            <path d="M0.00220121293,31.4323207 L0.00220121293,30.84836 C0.0878700656,29.1206537 0.641596897,27.4466416 1.60628166,25.998947 C3.21200535,24.2598983 4.31120848,22.1288148 4.78857028,19.829275 C4.78857028,18.0520033 4.78857028,16.2493419 4.94380387,14.4720701 C5.74584409,5.91577604 14.2060748,9.00020799e-14 22.5628165,9.00020799e-14 L22.7697946,9.00020799e-14 C31.1265363,9.00020799e-14 39.586767,5.91577604 40.4146795,14.4720701 C40.5699131,16.2493419 40.4146795,18.0520033 40.5440408,19.829275 C41.0278233,22.1341469 42.1259229,24.271852 43.7263294,26.0243366 C44.6982302,27.4592124 45.2528337,29.1270964 45.3304099,30.84836 L45.3304099,31.4069312 C45.3881576,33.7281198 44.5887174,35.9915223 43.0795228,37.7797199 C41.085223,39.8706007 38.3789679,41.1713849 35.4730768,41.4358219 C26.9519834,42.3498819 18.3547555,42.3498819 9.833662,41.4358219 C6.93104976,41.1599797 4.22868784,39.8610669 2.22721602,37.7797199 C0.741333333,35.9901573 -0.0473582184,33.7402216 0.00220121293,31.4323207 Z" id="Path_425"></path>
                            <path d="M16.1464947,50.2714015 C17.4778935,51.9425308 19.433056,53.0240492 21.5792748,53.2766001 C23.7254935,53.529151 25.8857823,52.931908 27.5820359,51.6170501 C28.1037416,51.2281613 28.5731751,50.7760166 28.9791383,50.2714015" id="Path_421" opacity="0.400000006"></path>
                        </g>
                    </g>
                    <path d="M71.136,19.012278 L71.136,17.8111797 C71.136,17.1396014 71.6804217,16.5951797 72.352,16.5951797 C72.5395074,16.5951797 72.7244747,16.6385426 72.892445,16.7218794 L74.1028889,17.3224285 C74.7044928,17.6209081 74.9502237,18.3505699 74.6517442,18.9521739 C74.5336639,19.1901719 74.340887,19.3829489 74.1028889,19.5010291 L72.892445,20.1015783 C72.2908411,20.4000579 71.5611793,20.154327 71.2626997,19.552723 C71.179363,19.3847527 71.136,19.1997854 71.136,19.012278 Z" id="Triangle-36" fill-opacity="0.4" fill="#A3B1BF"></path>
                    <ellipse id="Oval-203" stroke-opacity="0.4" stroke="#A3B1BF" stroke-width="1.824" cx="16.416" cy="10.6195886" rx="2.432" ry="2.41322314"></ellipse>
                    <path d="M71.136,48.0010762 C71.5062184,48.0010762 71.8063398,48.3011975 71.8063398,48.6714159 L71.806,50.2585473 L73.5056602,50.2590131 C73.8758787,50.2590131 74.176,50.5591345 74.176,50.9293529 C74.176,51.2995713 73.8758787,51.5996927 73.5056602,51.5996927 L71.806,51.5995473 L71.8063398,53.4107364 C71.8063398,53.7809549 71.5062184,54.0810762 71.136,54.0810762 C70.7657816,54.0810762 70.4656602,53.7809549 70.4656602,53.4107364 L70.465,51.5995473 L68.7663398,51.5996927 C68.3961213,51.5996927 68.096,51.2995713 68.096,50.9293529 C68.096,50.5591345 68.3961213,50.2590131 68.7663398,50.2590131 L70.465,50.2585473 L70.4656602,48.6714159 C70.4656602,48.3011975 70.7657816,48.0010762 71.136,48.0010762 Z" id="Combined-Shape" fill-opacity="0.4" fill="#A3B1BF"></path>
                    <path d="M3.04,37.7448778 C3.41021843,37.7448778 3.71033976,38.0449992 3.71033976,38.4152176 L3.71,40.0023489 L5.40966024,40.0028148 C5.77987867,40.0028148 6.08,40.3029361 6.08,40.6731545 C6.08,41.043373 5.77987867,41.3434943 5.40966024,41.3434943 L3.71,41.3433489 L3.71033976,43.1545381 C3.71033976,43.5247565 3.41021843,43.8248778 3.04,43.8248778 C2.66978157,43.8248778 2.36966024,43.5247565 2.36966024,43.1545381 L2.369,41.3433489 L0.670339761,41.3434943 C0.300121334,41.3434943 4.53386812e-17,41.043373 0,40.6731545 C-4.53386812e-17,40.3029361 0.300121334,40.0028148 0.670339761,40.0028148 L2.369,40.0023489 L2.36966024,38.4152176 C2.36966024,38.0449992 2.66978157,37.7448778 3.04,37.7448778 Z" id="Combined-Shape-Copy" fill-opacity="0.4" fill="#A3B1BF"></path>
                    <ellipse id="Oval-4" fill-opacity="0.25" fill="#A3B1BF" cx="40.128" cy="74.1900826" rx="19.456" ry="1.80991736"></ellipse>
                    <path d="M39,0 C41.209139,-4.05812251e-16 43,1.790861 43,4 C43,6.209139 41.209139,8 39,8 C36.790861,8 35,6.209139 35,4 C35,1.790861 36.790861,4.05812251e-16 39,0 Z" id="矩形" fill="#D9D7DC"></path>
                </g>
            </g>
        </g>
    </g>
</svg>