<?xml version="1.0" encoding="UTF-8"?>
<svg width="32px" height="33px" viewBox="0 0 32 33" version="1.1" xmlns="http://www.w3.org/2000/svg" xmlns:xlink="http://www.w3.org/1999/xlink">
    <title>Base/Logo2</title>
    <defs>
        <path d="M11.5374834,-4.66128138e-16 L20.4625166,4.66128138e-16 C24.4743509,-2.70833872e-16 25.929139,0.41771525 27.3958057,1.20209717 C28.8624723,1.98647908 30.0135209,3.13752767 30.7979028,4.60419433 C31.5822847,6.070861 32,7.52564907 32,11.5374834 L32,20.4625166 C32,24.4743509 31.5822847,25.929139 30.7979028,27.3958057 C30.0135209,28.8624723 28.8624723,30.0135209 27.3958057,30.7979028 C25.929139,31.5822847 24.4743509,32 20.4625166,32 L11.5374834,32 C7.52564907,32 6.070861,31.5822847 4.60419433,30.7979028 C3.13752767,30.0135209 1.98647908,28.8624723 1.20209717,27.3958057 C0.41771525,25.929139 1.80555915e-16,24.4743509 -3.10752092e-16,20.4625166 L3.10752092e-16,11.5374834 C-1.80555915e-16,7.52564907 0.41771525,6.070861 1.20209717,4.60419433 C1.98647908,3.13752767 3.13752767,1.98647908 4.60419433,1.20209717 C6.070861,0.41771525 7.52564907,2.70833872e-16 11.5374834,-4.66128138e-16 Z" id="path-1"></path>
        <linearGradient x1="27.30668%" y1="62.2946178%" x2="100%" y2="26.1343799%" id="linearGradient-3">
            <stop stop-color="#34A8FF" offset="0%"></stop>
            <stop stop-color="#1F59F1" offset="100%"></stop>
        </linearGradient>
        <path d="M6.49453416,9.6258721 C9.35248532,9.6258721 13.559778,17.3446614 12.2104365,19.7298985 C10.861095,22.1151356 2.28724149,22.3966747 0.778631825,19.7298985 C-0.729977839,17.0631224 3.63658299,9.6258721 6.49453416,9.6258721 Z" id="path-4"></path>
        <filter x="-33.3%" y="-50.0%" width="183.3%" height="183.3%" filterUnits="objectBoundingBox" id="filter-5">
            <feOffset dx="1" dy="-1" in="SourceAlpha" result="shadowOffsetOuter1"></feOffset>
            <feGaussianBlur stdDeviation="1.5" in="shadowOffsetOuter1" result="shadowBlurOuter1"></feGaussianBlur>
            <feColorMatrix values="0 0 0 0 0.116932191   0 0 0 0 0.27425329   0 0 0 0 0.722830068  0 0 0 0.518838095 0" type="matrix" in="shadowBlurOuter1"></feColorMatrix>
        </filter>
        <filter x="-33.3%" y="-50.0%" width="183.3%" height="183.3%" filterUnits="objectBoundingBox" id="filter-6">
            <feGaussianBlur stdDeviation="1.5" in="SourceAlpha" result="shadowBlurInner1"></feGaussianBlur>
            <feOffset dx="-1" dy="1" in="shadowBlurInner1" result="shadowOffsetInner1"></feOffset>
            <feComposite in="shadowOffsetInner1" in2="SourceAlpha" operator="arithmetic" k2="-1" k3="1" result="shadowInnerInner1"></feComposite>
            <feColorMatrix values="0 0 0 0 0.0323667688   0 0 0 0 0.207740148   0 0 0 0 0.707790209  0 0 0 1 0" type="matrix" in="shadowInnerInner1" result="shadowMatrixInner1"></feColorMatrix>
            <feGaussianBlur stdDeviation="1" in="SourceAlpha" result="shadowBlurInner2"></feGaussianBlur>
            <feOffset dx="-1" dy="1" in="shadowBlurInner2" result="shadowOffsetInner2"></feOffset>
            <feComposite in="shadowOffsetInner2" in2="SourceAlpha" operator="arithmetic" k2="-1" k3="1" result="shadowInnerInner2"></feComposite>
            <feColorMatrix values="0 0 0 0 1   0 0 0 0 1   0 0 0 0 1  0 0 0 0.140611342 0" type="matrix" in="shadowInnerInner2" result="shadowMatrixInner2"></feColorMatrix>
            <feGaussianBlur stdDeviation="1" in="SourceAlpha" result="shadowBlurInner3"></feGaussianBlur>
            <feOffset dx="-1" dy="1" in="shadowBlurInner3" result="shadowOffsetInner3"></feOffset>
            <feComposite in="shadowOffsetInner3" in2="SourceAlpha" operator="arithmetic" k2="-1" k3="1" result="shadowInnerInner3"></feComposite>
            <feColorMatrix values="0 0 0 0 1   0 0 0 0 0.583796208   0 0 0 0 0.946824815  0 0 0 0.31703965 0" type="matrix" in="shadowInnerInner3" result="shadowMatrixInner3"></feColorMatrix>
            <feMerge>
                <feMergeNode in="shadowMatrixInner1"></feMergeNode>
                <feMergeNode in="shadowMatrixInner2"></feMergeNode>
                <feMergeNode in="shadowMatrixInner3"></feMergeNode>
            </feMerge>
        </filter>
        <linearGradient x1="55.8599114%" y1="66.1967821%" x2="4.45600454%" y2="46.9121655%" id="linearGradient-7">
            <stop stop-color="#34A8FF" offset="0%"></stop>
            <stop stop-color="#205CF1" offset="100%"></stop>
        </linearGradient>
        <path d="M14.054126,0.374127896 C16.9120772,0.374127896 21.1193699,8.09291723 19.7700284,10.4781543 C18.4206869,12.8633914 9.84683336,13.1449304 8.3382237,10.4781543 C6.82961404,7.81137819 11.1961749,0.374127896 14.054126,0.374127896 Z" id="path-8"></path>
        <filter x="-50.0%" y="-33.3%" width="183.3%" height="183.3%" filterUnits="objectBoundingBox" id="filter-9">
            <feOffset dx="-1" dy="1" in="SourceAlpha" result="shadowOffsetOuter1"></feOffset>
            <feGaussianBlur stdDeviation="1.5" in="shadowOffsetOuter1" result="shadowBlurOuter1"></feGaussianBlur>
            <feColorMatrix values="0 0 0 0 0.116932191   0 0 0 0 0.27425329   0 0 0 0 0.722830068  0 0 0 0.518838095 0" type="matrix" in="shadowBlurOuter1"></feColorMatrix>
        </filter>
        <filter x="-45.8%" y="-29.2%" width="175.0%" height="175.0%" filterUnits="objectBoundingBox" id="filter-10">
            <feGaussianBlur stdDeviation="1" in="SourceAlpha" result="shadowBlurInner1"></feGaussianBlur>
            <feOffset dx="1" dy="1" in="shadowBlurInner1" result="shadowOffsetInner1"></feOffset>
            <feComposite in="shadowOffsetInner1" in2="SourceAlpha" operator="arithmetic" k2="-1" k3="1" result="shadowInnerInner1"></feComposite>
            <feColorMatrix values="0 0 0 0 0.0323667688   0 0 0 0 0.207740148   0 0 0 0 0.707790209  0 0 0 1 0" type="matrix" in="shadowInnerInner1" result="shadowMatrixInner1"></feColorMatrix>
            <feGaussianBlur stdDeviation="1" in="SourceAlpha" result="shadowBlurInner2"></feGaussianBlur>
            <feOffset dx="1" dy="1" in="shadowBlurInner2" result="shadowOffsetInner2"></feOffset>
            <feComposite in="shadowOffsetInner2" in2="SourceAlpha" operator="arithmetic" k2="-1" k3="1" result="shadowInnerInner2"></feComposite>
            <feColorMatrix values="0 0 0 0 1   0 0 0 0 1   0 0 0 0 1  0 0 0 0.330779816 0" type="matrix" in="shadowInnerInner2" result="shadowMatrixInner2"></feColorMatrix>
            <feGaussianBlur stdDeviation="1" in="SourceAlpha" result="shadowBlurInner3"></feGaussianBlur>
            <feOffset dx="1" dy="1" in="shadowBlurInner3" result="shadowOffsetInner3"></feOffset>
            <feComposite in="shadowOffsetInner3" in2="SourceAlpha" operator="arithmetic" k2="-1" k3="1" result="shadowInnerInner3"></feComposite>
            <feColorMatrix values="0 0 0 0 0.117906822   0 0 0 0 0.890666035   0 0 0 0 1  0 0 0 0.5 0" type="matrix" in="shadowInnerInner3" result="shadowMatrixInner3"></feColorMatrix>
            <feMerge>
                <feMergeNode in="shadowMatrixInner1"></feMergeNode>
                <feMergeNode in="shadowMatrixInner2"></feMergeNode>
                <feMergeNode in="shadowMatrixInner3"></feMergeNode>
            </feMerge>
        </filter>
        <filter x="-73.2%" y="-78.7%" width="246.3%" height="257.4%" filterUnits="objectBoundingBox" id="filter-11">
            <feGaussianBlur stdDeviation="1" in="SourceGraphic"></feGaussianBlur>
        </filter>
        <filter x="-36.6%" y="-39.3%" width="173.2%" height="178.7%" filterUnits="objectBoundingBox" id="filter-12">
            <feGaussianBlur stdDeviation="0.5" in="SourceGraphic"></feGaussianBlur>
        </filter>
    </defs>
    <g id="项目管理" stroke="none" stroke-width="1" fill="none" fill-rule="evenodd">
        <g id="1.4-项目列表" transform="translate(-16.000000, -16.000000)">
            <g id="Base/Logo2" transform="translate(16.000000, 16.000000)">
                <g id="矩形">
                    <mask id="mask-2" fill="white">
                        <use xlink:href="#path-1"></use>
                    </mask>
                    <path stroke="#D9E0F1" stroke-width="0.5" d="M11.5374834,0.25 L20.4625166,0.25 C24.4035516,0.25 25.8361798,0.651506866 27.277906,1.42255047 C28.7003611,2.1832878 29.8167122,3.29963891 30.5774495,4.72209405 C31.3484931,6.16382023 31.75,7.59644838 31.75,11.5374834 L31.75,11.5374834 L31.75,20.4625166 C31.75,24.4035516 31.3484931,25.8361798 30.5774495,27.277906 C29.8167122,28.7003611 28.7003611,29.8167122 27.277906,30.5774495 C25.8361798,31.3484931 24.4035516,31.75 20.4625166,31.75 L20.4625166,31.75 L11.5374834,31.75 C7.59644838,31.75 6.16382023,31.3484931 4.72209405,30.5774495 C3.29963891,29.8167122 2.1832878,28.7003611 1.42255047,27.277906 C0.651506866,25.8361798 0.25,24.4035516 0.25,20.4625166 L0.25,20.4625166 L0.25,11.5374834 C0.25,7.59644838 0.651506866,6.16382023 1.42255047,4.72209405 C2.1832878,3.29963891 3.29963891,2.1832878 4.72209405,1.42255047 C6.16382023,0.651506866 7.59644838,0.25 11.5374834,0.25 L11.5374834,0.25 Z"></path>
                    <rect fill-opacity="0.08" fill="#131746" mask="url(#mask-2)" transform="translate(17.250000, 6.500000) rotate(-270.000000) translate(-17.250000, -6.500000) " x="17" y="-12.5" width="1" height="38"></rect>
                    <rect fill-opacity="0.08" fill="#131746" mask="url(#mask-2)" x="5.25" y="-0.5" width="1" height="38"></rect>
                    <rect id="矩形备份" fill-opacity="0.08" fill="#131746" mask="url(#mask-2)" x="14.25" y="-1" width="1" height="38"></rect>
                </g>
                <g id="编组-2" transform="translate(16.250000, 16.250000) rotate(-270.000000) translate(-16.250000, -16.250000) translate(5.750000, 5.250000)">
                    <g id="三角形">
                        <use fill="black" fill-opacity="1" filter="url(#filter-5)" xlink:href="#path-4"></use>
                        <use fill="url(#linearGradient-3)" fill-rule="evenodd" xlink:href="#path-4"></use>
                        <use fill="black" fill-opacity="1" filter="url(#filter-6)" xlink:href="#path-4"></use>
                    </g>
                    <g id="三角形备份" transform="translate(14.029796, 6.374128) rotate(-180.000000) translate(-14.029796, -6.374128) ">
                        <use fill="black" fill-opacity="1" filter="url(#filter-9)" xlink:href="#path-8"></use>
                        <use fill="url(#linearGradient-7)" fill-rule="evenodd" xlink:href="#path-8"></use>
                        <use fill="black" fill-opacity="1" filter="url(#filter-10)" xlink:href="#path-8"></use>
                    </g>
                    <path d="M1.5888663,19.5735361 C2.17773261,20.3041267 4.19542362,20.9177513 5.23775796,20.9177513 C3.07279379,20.3622751 2.43516452,19.670889 2.08417012,19.1776756 C1.73317573,18.6844622 1.35504628,17.9558258 1.31101863,17.1050528 C1.08011803,17.893837 1,18.8429455 1.5888663,19.5735361 Z" id="路径" fill="#FFFFFF" opacity="0.255573587" filter="url(#filter-11)"></path>
                    <path d="M1.5888663,19.5735361 C2.17773261,20.3041267 4.19542362,20.9177513 5.23775796,20.9177513 C3.07279379,20.3622751 2.43516452,19.670889 2.08417012,19.1776756 C1.73317573,18.6844622 1.35504628,17.9558258 1.31101863,17.1050528 C1.08011803,17.893837 1,18.8429455 1.5888663,19.5735361 Z" id="路径" fill="#FFFFFF" opacity="0.485011202" filter="url(#filter-12)"></path>
                </g>
            </g>
        </g>
    </g>
</svg>